# Blender 4.4.1
# www.blender.org
mtllib player.mtl
o Cube
v -0.268615 0.363488 0.191874
v -0.317352 -0.470526 0.080742
v -0.342833 0.363647 -0.290202
v -0.339090 -0.470526 -0.339916
v 0.268615 0.363488 0.191874
v 0.317352 -0.470526 0.080742
v 0.342833 0.363647 -0.290202
v 0.339090 -0.470526 -0.339916
v -0.369953 -0.266777 0.218160
v 0.451652 -0.100119 -0.359200
v -0.451652 -0.100119 -0.359200
v 0.369953 -0.266777 0.218160
v 0.373341 -0.470526 -0.115086
v -0.368555 0.371833 -0.115086
v 0.368555 0.371833 -0.115086
v -0.373341 -0.470526 -0.115086
v -0.500000 -0.177721 -0.115086
v 0.500000 -0.177721 -0.115086
v 0.000000 -0.470526 0.304651
v 0.000000 -0.470526 -0.407990
v 0.000000 0.423552 0.257454
v 0.000000 -0.301600 0.409349
v 0.000000 -0.089835 -0.489720
v 0.000000 -0.470526 -0.115086
v 0.000000 0.520433 -0.221533
v 0.451652 0.235263 -0.306099
v -0.396279 0.235263 0.238196
v -0.451652 0.235263 -0.306099
v 0.396279 0.235263 0.238196
v -0.500000 0.235263 -0.115086
v 0.500000 0.235263 -0.115086
v 0.000000 0.067414 0.498353
v 0.000000 0.235263 -0.467171
v -0.295388 -0.383532 0.115854
v -0.299735 -0.316501 -0.321114
v 0.295388 -0.383532 0.115854
v 0.299735 -0.316501 -0.321114
v 0.422978 -0.367648 -0.115086
v -0.422978 -0.367648 -0.115086
v 0.000000 -0.316501 -0.384380
v 0.000000 -0.425673 0.326738
v 0.000000 0.529307 -0.501647
v 0.188015 0.439067 -0.365136
v -0.188015 0.439067 -0.365136
v 0.000000 0.529474 -0.334294
v 0.000000 0.352885 -0.446029
vn -0.4221 0.9057 0.0395
vn 0.3117 0.3725 -0.8741
vn 0.7049 0.6784 0.2070
vn -0.0000 -1.0000 -0.0000
vn -0.7379 0.6486 -0.1868
vn -0.2930 0.5357 0.7919
vn -0.4615 -0.7328 0.5000
vn -0.7778 -0.3154 -0.5436
vn 0.8334 -0.3380 0.4372
vn 0.1880 -0.4139 -0.8907
vn 0.7778 -0.3154 -0.5436
vn -0.8334 -0.3380 0.4372
vn -0.7049 0.6784 0.2070
vn 0.7379 0.6486 -0.1868
vn 0.2585 0.9468 0.1915
vn -0.3367 0.9319 0.1350
vn -0.1880 -0.4139 -0.8907
vn 0.4615 -0.7328 0.5000
vn 0.2930 0.5357 0.7919
vn -0.3117 0.3725 -0.8741
vn -0.3970 0.9123 -0.1010
vn -0.2784 0.0665 -0.9582
vn 0.4645 -0.2076 0.8609
vn 0.9809 -0.0000 -0.1943
vn -0.9353 -0.0629 0.3482
vn -0.4645 -0.2076 0.8609
vn -0.9809 -0.0000 -0.1943
vn 0.9353 -0.0629 0.3482
vn 0.2784 0.0665 -0.9582
vn 0.5670 -0.1812 0.8036
vn -0.1940 0.1676 -0.9666
vn -0.8722 -0.4208 0.2494
vn 0.9542 0.2615 -0.1454
vn 0.1940 0.1676 -0.9666
vn 0.8722 -0.4208 0.2494
vn -0.9542 0.2615 -0.1454
vn -0.5670 -0.1812 0.8036
vn 0.3970 0.9123 -0.1010
vn 0.4485 0.0334 -0.8931
vn 0.6467 0.7271 0.2303
vn -0.7137 0.6869 -0.1369
vn -0.3134 0.5828 0.7497
vn -0.4344 -0.4992 0.7497
vn -0.7436 -0.5805 -0.3318
vn 0.7755 -0.6161 0.1380
vn 0.2542 -0.3380 -0.9062
vn 0.7436 -0.5805 -0.3318
vn -0.7755 -0.6161 0.1380
vn -0.6467 0.7271 0.2303
vn 0.7137 0.6869 -0.1369
vn 0.3367 0.9319 0.1350
vn -0.2585 0.9468 0.1915
vn -0.2542 -0.3380 -0.9062
vn 0.4344 -0.4992 0.7497
vn 0.3134 0.5828 0.7497
vn -0.3239 0.1674 -0.9312
vn 0.4418 0.8943 0.0717
vn -0.3322 0.1475 -0.9316
vn 0.5661 -0.0625 0.8220
vn 0.9687 0.0388 -0.2452
vn -0.9595 -0.0000 0.2817
vn -0.5661 -0.0625 0.8220
vn -0.9687 0.0388 -0.2452
vn 0.9595 -0.0000 0.2817
vn 0.3322 0.1475 -0.9316
vn 0.5754 -0.3613 0.7337
vn -0.2042 0.1483 -0.9676
vn -0.8743 0.0251 0.4848
vn 0.7563 -0.3649 -0.5430
vn 0.2042 0.1483 -0.9676
vn 0.8743 0.0251 0.4848
vn -0.7563 -0.3649 -0.5430
vn -0.5754 -0.3613 0.7337
vn 0.4332 0.9013 -0.0009
vn 0.4807 -0.2637 -0.8363
vn -0.4807 -0.2637 -0.8363
vn -0.4332 0.9013 -0.0009
vn -0.4418 0.8943 0.0717
vn 0.3239 0.1674 -0.9312
vn -0.4485 0.0334 -0.8931
vn 0.4221 0.9057 0.0395
vt 0.515772 0.821781
vt 0.625388 0.756933
vt 0.569689 0.225805
vt 0.457986 0.264329
vt 0.429697 0.225223
vt 0.397931 0.822627
vt 0.389066 0.956474
vt 0.355902 0.823799
vt 0.862494 0.138393
vt 0.750467 0.058770
vt 0.857659 0.028456
vt 0.675641 0.823799
vt 0.660182 0.736860
vt 0.517188 0.737135
vt 0.334838 0.645227
vt 0.517188 0.581217
vt 0.517188 0.388751
vt 0.325537 0.474099
vt 0.359433 0.434307
vt 0.110740 0.657075
vt 0.019329 0.618780
vt 0.106118 0.612450
vt 0.884813 0.688697
vt 0.790866 0.611851
vt 0.882443 0.625998
vt 0.569714 0.153607
vt 0.474942 0.055763
vt 0.570099 0.056092
vt 0.952990 0.629390
vt 0.219683 0.600428
vt 0.642477 0.956474
vt 0.633612 0.822627
vt 0.764355 0.216352
vt 0.870111 0.311580
vt 0.406155 0.756933
vt 0.371361 0.736860
vt 0.429885 0.955374
vt 0.515772 0.954859
vt 0.601658 0.955374
vt 0.967098 0.207436
vt 0.963866 0.133935
vt 0.660581 0.055763
vt 0.691979 0.467962
vt 0.658083 0.418794
vt 0.691979 0.649194
vt 0.967098 0.049243
vt 0.670317 0.264329
vt 0.709424 0.225223
vt 0.710853 0.153090
vt 0.517188 0.442643
vt 0.972185 0.735586
vt 0.882216 0.810991
vt 0.209728 0.792111
vt 0.225626 0.638010
vt 0.102460 0.779974
vt 0.016302 0.709726
vt 0.746115 0.804735
vt 0.756107 0.652225
vt 0.431125 0.153090
vt 0.517188 0.341594
vt 0.691979 0.341801
vt 0.570336 0.008947
vt 0.674689 0.008593
vt 0.207764 0.573581
vt 0.096827 0.574660
vt 0.878201 0.586679
vt 0.962768 0.586949
vt 0.464676 0.008593
vt 0.805420 0.588031
vt 0.019430 0.581906
vt 0.325537 0.348274
vt 0.761122 0.142851
vt 0.371600 0.720303
vt 0.646430 0.725667
vt 0.966017 0.805340
vt 0.016734 0.777480
vt 0.515772 0.758768
vt 0.569066 0.297090
s 1
usemtl Material.001
f 25/1/1 44/2/1 3/2/1
f 33/3/2 7/4/2 26/5/2
f 15/6/3 29/7/3 31/8/3
f 24/9/4 4/10/4 20/11/4
f 30/12/5 3/2/5 28/13/5
f 21/14/6 27/15/6 32/16/6
f 41/17/7 9/18/7 34/19/7
f 17/20/8 35/21/8 39/22/8
f 18/23/9 36/24/9 38/25/9
f 23/26/10 37/27/10 40/28/10
f 37/29/11 18/23/11 38/25/11
f 34/30/12 17/20/12 39/22/12
f 27/31/13 14/32/13 30/12/13
f 2/33/4 24/9/4 19/34/4
f 7/35/14 31/8/14 26/36/14
f 5/37/15 25/1/15 21/38/15
f 1/39/16 25/1/16 14/32/16
f 6/40/4 24/9/4 13/41/4
f 35/42/17 23/26/17 40/28/17
f 12/43/18 41/17/18 36/44/18
f 29/45/19 21/14/19 32/16/19
f 24/9/4 8/46/4 13/41/4
f 3/47/20 33/3/20 28/48/20
f 25/1/21 3/2/21 14/32/21
f 11/49/22 33/3/22 23/26/22
f 12/43/23 32/16/23 22/50/23
f 10/51/24 31/52/24 18/23/24
f 27/53/25 17/20/25 9/54/25
f 32/16/26 9/18/26 22/50/26
f 30/55/27 11/56/27 17/20/27
f 18/23/28 29/57/28 12/58/28
f 33/3/29 10/59/29 23/26/29
f 36/44/30 19/60/30 6/61/30
f 35/42/31 20/62/31 4/63/31
f 2/64/32 39/22/32 16/65/32
f 37/29/33 13/66/33 8/67/33
f 20/62/34 37/27/34 8/68/34
f 38/25/35 6/69/35 13/66/35
f 16/65/36 35/21/36 4/70/36
f 19/60/37 34/19/37 2/71/37
f 25/1/38 15/6/38 7/35/38
f 33/3/39 43/4/39 7/4/39
f 15/6/40 5/37/40 29/7/40
f 24/9/4 16/72/4 4/10/4
f 30/12/41 14/32/41 3/2/41
f 21/14/42 1/73/42 27/15/42
f 41/17/43 22/50/43 9/18/43
f 17/20/44 11/56/44 35/21/44
f 18/23/45 12/58/45 36/24/45
f 23/26/46 10/59/46 37/27/46
f 37/29/47 10/51/47 18/23/47
f 34/30/48 9/54/48 17/20/48
f 27/31/49 1/39/49 14/32/49
f 2/33/4 16/72/4 24/9/4
f 7/35/50 15/6/50 31/8/50
f 5/37/51 15/6/51 25/1/51
f 1/39/52 21/38/52 25/1/52
f 6/40/4 19/34/4 24/9/4
f 35/42/53 11/49/53 23/26/53
f 12/43/54 22/50/54 41/17/54
f 29/45/55 5/74/55 21/14/55
f 24/9/4 20/11/4 8/46/4
f 33/3/56 44/47/56 46/3/56
f 25/1/57 43/35/57 45/1/57
f 11/49/58 28/48/58 33/3/58
f 12/43/59 29/45/59 32/16/59
f 10/51/60 26/75/60 31/52/60
f 27/53/61 30/55/61 17/20/61
f 32/16/62 27/15/62 9/18/62
f 30/55/63 28/76/63 11/56/63
f 18/23/64 31/52/64 29/57/64
f 33/3/65 26/5/65 10/59/65
f 36/44/66 41/17/66 19/60/66
f 35/42/67 40/28/67 20/62/67
f 2/64/68 34/30/68 39/22/68
f 37/29/69 38/25/69 13/66/69
f 20/62/70 40/28/70 37/27/70
f 38/25/71 36/24/71 6/69/71
f 16/65/72 39/22/72 35/21/72
f 19/60/73 41/17/73 34/19/73
f 45/1/74 43/35/74 42/77/74
f 46/3/75 42/78/75 43/4/75
f 44/47/76 42/78/76 46/3/76
f 45/1/77 42/77/77 44/2/77
f 25/1/78 45/1/78 44/2/78
f 33/3/79 46/3/79 43/4/79
f 33/3/80 3/47/80 44/47/80
f 25/1/81 7/35/81 43/35/81
