# Blender 4.4.1
# www.blender.org
mtllib sky.mtl
o 球
v 0.000000 415.734802 -277.785217
v 0.000000 277.785126 -415.734955
v 0.000000 97.545158 -490.392792
v 0.000000 0.000000 -500.000183
v 0.000000 -97.545158 -490.392792
v 0.000000 -277.785126 -415.734955
v 19.030128 490.392639 -95.670891
v 37.328945 461.939758 -187.665222
v 54.193226 415.734802 -272.447662
v 68.974884 353.553375 -346.760071
v 81.105888 277.785126 -407.746704
v 90.120026 191.341721 -453.063873
v 95.670914 97.545158 -480.970032
v 97.545219 0.000000 -490.392792
v 95.670914 -97.545158 -480.970032
v 90.120026 -191.341721 -453.063873
v 81.105888 -277.785126 -407.746704
v 68.974884 -353.553375 -346.760071
v 54.193226 -415.734802 -272.447662
v 37.328945 -461.939758 -187.665222
v 19.030128 -490.392639 -95.670891
v 37.328938 490.392639 -90.120003
v 73.223351 461.939758 -176.776779
v 106.303833 415.734802 -256.640045
v 135.299103 353.553375 -326.640839
v 159.094910 277.785126 -384.088959
v 176.776779 191.341721 -426.776825
v 187.665253 97.545158 -453.063873
v 191.341827 0.000000 -461.939880
v 187.665253 -97.545158 -453.063873
v 176.776779 -191.341721 -426.776825
v 159.094910 -277.785126 -384.088959
v 135.299103 -353.553375 -326.640839
v 106.303833 -415.734802 -256.640045
v 73.223351 -461.939758 -176.776779
v 37.328938 -490.392639 -90.120003
v 54.193218 490.392639 -81.105858
v 106.303833 461.939758 -159.094879
v 154.329224 415.734802 -230.969925
v 196.423859 353.553375 -293.968994
v 230.969986 277.785126 -345.670929
v 256.640106 191.341721 -384.088989
v 272.447723 97.545158 -407.746704
v 277.785278 0.000000 -415.734894
v 272.447723 -97.545158 -407.746704
v 256.640106 -191.341721 -384.088989
v 230.969986 -277.785126 -345.670929
v 196.423859 -353.553375 -293.968994
v 154.329224 -415.734802 -230.969925
v 106.303833 -461.939758 -159.094879
v 54.193218 -490.392639 -81.105858
v 68.974876 490.392639 -68.974854
v 135.299103 461.939758 -135.299057
v 196.423843 415.734802 -196.423767
v 250.000153 353.553375 -250.000092
v 293.969025 277.785126 -293.968933
v 326.640900 191.341721 -326.640839
v 346.760162 97.545158 -346.760040
v 353.553589 0.000000 -353.553436
v 346.760162 -97.545158 -346.760040
v 326.640900 -191.341721 -326.640839
v 293.969025 -277.785126 -293.968933
v 250.000153 -353.553375 -250.000092
v 196.423843 -415.734802 -196.423767
v 135.299103 -461.939758 -135.299057
v 68.974876 -490.392639 -68.974854
v 81.105881 490.392639 -54.193195
v 159.094925 461.939758 -106.303787
v 230.970001 415.734802 -154.329163
v 293.969055 353.553375 -196.423813
v 345.671021 277.785126 -230.969894
v 384.089050 191.341721 -256.640076
v 407.746796 97.545158 -272.447601
v 415.735016 0.000000 -277.785095
v 407.746796 -97.545158 -272.447601
v 384.089050 -191.341721 -256.640076
v 345.671021 -277.785126 -230.969894
v 293.969055 -353.553375 -196.423813
v 230.970001 -415.734802 -154.329163
v 159.094925 -461.939758 -106.303787
v 81.105881 -490.392639 -54.193195
v 0.000000 500.000000 0.000000
v 90.120010 490.392639 -37.328918
v 176.776779 461.939758 -73.223320
v 256.640106 415.734802 -106.303764
v 326.640930 353.553375 -135.299072
v 384.089050 277.785126 -159.094803
v 426.776917 191.341721 -176.776779
v 453.063934 97.545158 -187.665146
v 461.939972 0.000000 -191.341675
v 453.063934 -97.545158 -187.665146
v 426.776917 -191.341721 -176.776779
v 384.089050 -277.785126 -159.094803
v 326.640930 -353.553375 -135.299072
v 256.640106 -415.734802 -106.303764
v 176.776779 -461.939758 -73.223320
v 90.120010 -490.392639 -37.328918
v 95.670891 490.392639 -19.030113
v 187.665237 461.939758 -37.328918
v 272.447693 415.734802 -54.193176
v 346.760162 353.553375 -68.974876
v 407.746735 277.785126 -81.105812
v 453.063934 191.341721 -90.120026
v 480.970123 97.545158 -95.670837
v 490.392822 0.000000 -97.545097
v 480.970123 -97.545158 -95.670837
v 453.063934 -191.341721 -90.120026
v 407.746735 -277.785126 -81.105812
v 346.760162 -353.553375 -68.974876
v 272.447693 -415.734802 -54.193176
v 187.665237 -461.939758 -37.328918
v 95.670891 -490.392639 -19.030113
v 97.545189 490.392639 0.000006
v 191.341812 461.939758 0.000011
v 277.785217 415.734802 0.000026
v 353.553558 353.553375 -0.000007
v 415.734955 277.785126 0.000045
v 461.940002 191.341721 -0.000022
v 490.392853 97.545158 0.000045
v 500.000153 0.000000 0.000082
v 490.392853 -97.545158 0.000045
v 461.940002 -191.341721 -0.000022
v 415.734955 -277.785126 0.000045
v 353.553558 -353.553375 -0.000007
v 277.785217 -415.734802 0.000026
v 191.341812 -461.939758 0.000011
v 97.545189 -490.392639 0.000006
v 95.670883 490.392639 19.030123
v 187.665237 461.939758 37.328938
v 272.447662 415.734802 54.193222
v 346.760132 353.553375 68.974854
v 407.746704 277.785126 81.105896
v 453.063934 191.341721 90.119980
v 480.970093 97.545158 95.670921
v 490.392731 0.000000 97.545250
v 480.970093 -97.545158 95.670921
v 453.063934 -191.341721 90.119980
v 407.746704 -277.785126 81.105896
v 346.760132 -353.553375 68.974854
v 272.447662 -415.734802 54.193222
v 187.665237 -461.939758 37.328938
v 95.670883 -490.392639 19.030123
v 90.119995 490.392639 37.328922
v 176.776779 461.939758 73.223335
v 256.640045 415.734802 106.303802
v 326.640900 353.553375 135.299042
v 384.088989 277.785126 159.094879
v 426.776917 191.341721 176.776718
v 453.063873 97.545158 187.665222
v 461.939819 0.000000 191.341797
v 453.063873 -97.545158 187.665222
v 426.776917 -191.341721 176.776718
v 384.088989 -277.785126 159.094879
v 326.640900 -353.553375 135.299042
v 256.640045 -415.734802 106.303802
v 176.776779 -461.939758 73.223335
v 90.119995 -490.392639 37.328922
v 81.105850 490.392639 54.193188
v 159.094894 461.939758 106.303795
v 230.969925 415.734802 154.329178
v 293.969025 353.553375 196.423782
v 345.670929 277.785126 230.969925
v 384.089050 191.341721 256.640015
v 407.746704 97.545158 272.447632
v 415.734802 0.000000 277.785187
v 407.746704 -97.545158 272.447632
v 384.089050 -191.341721 256.640015
v 345.670929 -277.785126 230.969925
v 293.969025 -353.553375 196.423782
v 230.969925 -415.734802 154.329178
v 159.094894 -461.939758 106.303795
v 81.105850 -490.392639 54.193188
v 68.974854 490.392639 68.974838
v 135.299072 461.939758 135.299057
v 196.423752 415.734802 196.423782
v 250.000122 353.553375 250.000061
v 293.968933 277.785126 293.968933
v 326.640900 191.341721 326.640778
v 346.760071 97.545158 346.760040
v 353.553345 0.000000 353.553467
v 346.760071 -97.545158 346.760040
v 326.640900 -191.341721 326.640778
v 293.968933 -277.785126 293.968933
v 250.000122 -353.553375 250.000061
v 196.423752 -415.734802 196.423782
v 135.299072 -461.939758 135.299057
v 68.974854 -490.392639 68.974838
v 54.193192 490.392639 81.105827
v 106.303787 461.939758 159.094864
v 154.329147 415.734802 230.969910
v 196.423828 353.553375 293.968964
v 230.969910 277.785126 345.670898
v 256.640106 191.341721 384.088928
v 272.447601 97.545158 407.746643
v 277.785034 0.000000 415.734833
v 272.447601 -97.545158 407.746643
v 256.640106 -191.341721 384.088928
v 230.969910 -277.785126 345.670898
v 196.423828 -353.553375 293.968964
v 154.329147 -415.734802 230.969910
v 106.303787 -461.939758 159.094864
v 54.193192 -490.392639 81.105827
v 37.328915 490.392639 90.119965
v 73.223305 461.939758 176.776733
v 106.303741 415.734802 256.639984
v 135.299072 353.553375 326.640808
v 159.094818 277.785126 384.088898
v 176.776779 191.341721 426.776733
v 187.665131 97.545158 453.063782
v 191.341599 0.000000 461.939728
v 187.665131 -97.545158 453.063782
v 176.776779 -191.341721 426.776733
v 159.094818 -277.785126 384.088898
v 135.299072 -353.553375 326.640808
v 106.303741 -415.734802 256.639984
v 73.223305 -461.939758 176.776733
v 37.328915 -490.392639 90.119965
v 19.030113 490.392639 95.670830
v 37.328903 461.939758 187.665161
v 54.193150 415.734802 272.447540
v 68.974869 353.553375 346.760040
v 81.105812 277.785126 407.746582
v 90.120026 191.341721 453.063782
v 95.670815 97.545158 480.969910
v 97.545013 0.000000 490.392578
v 95.670815 -97.545158 480.969910
v 90.120026 -191.341721 453.063782
v 81.105812 -277.785126 407.746582
v 68.974869 -353.553375 346.760040
v 54.193150 -415.734802 272.447540
v 37.328903 -461.939758 187.665161
v 19.030113 -490.392639 95.670830
v -0.000004 490.392639 97.545128
v -0.000026 461.939758 191.341736
v -0.000048 415.734802 277.785065
v -0.000007 353.553375 353.553467
v -0.000052 277.785126 415.734802
v 0.000015 191.341721 461.939789
v -0.000067 97.545158 490.392670
v -0.000164 0.000000 499.999847
v -0.000067 -97.545158 490.392670
v 0.000015 -191.341721 461.939789
v -0.000052 -277.785126 415.734802
v -0.000007 -353.553375 353.553467
v -0.000048 -415.734802 277.785065
v -0.000026 -461.939758 191.341736
v -0.000004 -490.392639 97.545128
v -19.030119 490.392639 95.670822
v -37.328957 461.939758 187.665161
v -54.193241 415.734802 272.447510
v -68.974876 353.553375 346.760010
v -81.105911 277.785126 407.746552
v -90.119987 191.341721 453.063751
v -95.670952 97.545158 480.969879
v -97.545319 0.000000 490.392456
v -95.670952 -97.545158 480.969879
v -90.119987 -191.341721 453.063751
v -81.105911 -277.785126 407.746552
v -68.974876 -353.553375 346.760010
v -54.193241 -415.734802 272.447510
v -37.328957 -461.939758 187.665161
v -19.030119 -490.392639 95.670822
v -37.328915 490.392639 90.119949
v -73.223351 461.939758 176.776718
v -106.303818 415.734802 256.639893
v -135.299072 353.553375 326.640778
v -159.094910 277.785126 384.088837
v -176.776718 191.341721 426.776703
v -187.665253 97.545158 453.063690
v -191.341858 0.000000 461.939545
v -187.665253 -97.545158 453.063690
v -176.776718 -191.341721 426.776703
v -159.094910 -277.785126 384.088837
v -135.299072 -353.553375 326.640778
v -106.303818 -415.734802 256.639893
v -73.223351 -461.939758 176.776718
v -37.328915 -490.392639 90.119949
v -54.193184 490.392639 81.105804
v -106.303818 461.939758 159.094818
v -154.329193 415.734802 230.969788
v -196.423828 353.553375 293.968933
v -230.969955 277.785126 345.670807
v -256.640015 191.341721 384.088898
v -272.447693 97.545158 407.746521
v -277.785217 0.000000 415.734528
v -272.447693 -97.545158 407.746521
v -256.640015 -191.341721 384.088898
v -230.969955 -277.785126 345.670807
v -196.423828 -353.553375 293.968933
v -154.329193 -415.734802 230.969788
v -106.303818 -461.939758 159.094818
v -54.193184 -490.392639 81.105804
v -68.974838 490.392639 68.974808
v -135.299072 461.939758 135.299011
v -196.423767 415.734802 196.423630
v -250.000107 353.553375 250.000031
v -293.968964 277.785126 293.968811
v -326.640808 191.341721 326.640747
v -346.760101 97.545158 346.759888
v -353.553436 0.000000 353.553101
v -346.760101 -97.545158 346.759888
v -326.640808 -191.341721 326.640747
v -293.968964 -277.785126 293.968811
v -250.000107 -353.553375 250.000031
v -196.423767 -415.734802 196.423630
v -135.299072 -461.939758 135.299011
v -68.974838 -490.392639 68.974808
v 0.000000 -500.000000 0.000000
v -81.105827 490.392639 54.193157
v -159.094879 461.939758 106.303749
v -230.969894 415.734802 154.329025
v -293.968994 353.553375 196.423752
v -345.670929 277.785126 230.969803
v -384.088959 191.341721 256.639984
v -407.746704 97.545158 272.447449
v -415.734802 0.000000 277.784821
v -407.746704 -97.545158 272.447449
v -384.088959 -191.341721 256.639984
v -345.670929 -277.785126 230.969803
v -293.968994 -353.553375 196.423752
v -230.969894 -415.734802 154.329025
v -159.094879 -461.939758 106.303749
v -81.105827 -490.392639 54.193157
v -90.119957 490.392639 37.328892
v -176.776733 461.939758 73.223282
v -256.639954 415.734802 106.303658
v -326.640869 353.553375 135.299026
v -384.088928 277.785126 159.094727
v -426.776794 191.341721 176.776703
v -453.063843 97.545158 187.665009
v -461.939697 0.000000 191.341415
v -453.063843 -97.545158 187.665009
v -426.776794 -191.341721 176.776703
v -384.088928 -277.785126 159.094727
v -326.640869 -353.553375 135.299026
v -256.639954 -415.734802 106.303658
v -176.776733 -461.939758 73.223282
v -90.119957 -490.392639 37.328892
v -95.670830 490.392639 19.030098
v -187.665176 461.939758 37.328892
v -272.447510 415.734802 54.193096
v -346.760101 353.553375 68.974838
v -407.746613 277.785126 81.105743
v -453.063812 191.341721 90.119972
v -480.970001 97.545158 95.670731
v -490.392517 0.000000 97.544884
v -480.970001 -97.545158 95.670731
v -453.063812 -191.341721 90.119972
v -407.746613 -277.785126 81.105743
v -346.760101 -353.553375 68.974838
v -272.447510 -415.734802 54.193096
v -187.665176 -461.939758 37.328892
v -95.670830 -490.392639 19.030098
v -97.545135 490.392639 -0.000009
v -191.341736 461.939758 -0.000026
v -277.785065 415.734802 -0.000075
v -353.553497 353.553375 -0.000015
v -415.734833 277.785126 -0.000082
v -461.939850 191.341721 -0.000007
v -490.392731 97.545158 -0.000134
v -499.999817 0.000000 -0.000224
v -490.392731 -97.545158 -0.000134
v -461.939850 -191.341721 -0.000007
v -415.734833 -277.785126 -0.000082
v -353.553497 -353.553375 -0.000015
v -277.785065 -415.734802 -0.000075
v -191.341736 -461.939758 -0.000026
v -97.545135 -490.392639 -0.000009
v -95.670822 490.392639 -19.030115
v -187.665161 461.939758 -37.328938
v -272.447479 415.734802 -54.193237
v -346.760071 353.553375 -68.974869
v -407.746552 277.785126 -81.105911
v -453.063782 191.341721 -90.119980
v -480.969910 97.545158 -95.670982
v -490.392426 0.000000 -97.545326
v -480.969910 -97.545158 -95.670982
v -453.063782 -191.341721 -90.119980
v -407.746552 -277.785126 -81.105911
v -346.760071 -353.553375 -68.974869
v -272.447479 -415.734802 -54.193237
v -187.665161 -461.939758 -37.328938
v -95.670822 -490.392639 -19.030115
v -90.119949 490.392639 -37.328907
v -176.776718 461.939758 -73.223320
v -256.639862 415.734802 -106.303780
v -326.640839 353.553375 -135.299042
v -384.088837 277.785126 -159.094864
v -426.776764 191.341721 -176.776688
v -453.063690 97.545158 -187.665237
v -461.939484 0.000000 -191.341812
v -453.063690 -97.545158 -187.665237
v -426.776764 -191.341721 -176.776688
v -384.088837 -277.785126 -159.094864
v -326.640839 -353.553375 -135.299042
v -256.639862 -415.734802 -106.303780
v -176.776718 -461.939758 -73.223320
v -90.119949 -490.392639 -37.328907
v -81.105804 490.392639 -54.193165
v -159.094818 461.939758 -106.303764
v -230.969742 415.734802 -154.329132
v -293.968964 353.553375 -196.423767
v -345.670807 277.785126 -230.969894
v -384.088928 191.341721 -256.639954
v -407.746521 97.545158 -272.447632
v -415.734497 0.000000 -277.785126
v -407.746521 -97.545158 -272.447632
v -384.088928 -191.341721 -256.639954
v -345.670807 -277.785126 -230.969894
v -293.968964 -353.553375 -196.423767
v -230.969742 -415.734802 -154.329132
v -159.094818 -461.939758 -106.303764
v -81.105804 -490.392639 -54.193165
v -68.974815 490.392639 -68.974808
v -135.299026 461.939758 -135.299011
v -196.423584 415.734802 -196.423691
v -250.000061 353.553375 -250.000031
v -293.968811 277.785126 -293.968872
v -326.640778 191.341721 -326.640686
v -346.759888 97.545158 -346.759979
v -353.553070 0.000000 -353.553314
v -346.759888 -97.545158 -346.759979
v -326.640778 -191.341721 -326.640686
v -293.968811 -277.785126 -293.968872
v -250.000061 -353.553375 -250.000031
v -196.423584 -415.734802 -196.423691
v -135.299026 -461.939758 -135.299011
v -68.974815 -490.392639 -68.974808
v -54.193157 490.392639 -81.105789
v -106.303749 461.939758 -159.094803
v -154.328995 415.734802 -230.969803
v -196.423767 353.553375 -293.968933
v -230.969772 277.785126 -345.670807
v -256.639984 191.341721 -384.088837
v -272.447449 97.545158 -407.746552
v -277.784790 0.000000 -415.734619
v -272.447449 -97.545158 -407.746552
v -256.639984 -191.341721 -384.088837
v -230.969772 -277.785126 -345.670807
v -196.423767 -353.553375 -293.968933
v -154.328995 -415.734802 -230.969803
v -106.303749 -461.939758 -159.094803
v -54.193157 -490.392639 -81.105789
v -37.328892 490.392639 -90.119919
v -73.223282 461.939758 -176.776688
v -106.303612 415.734802 -256.639832
v -135.299042 353.553375 -326.640778
v -159.094696 277.785126 -384.088776
v -176.776703 191.341721 -426.776642
v -187.665009 97.545158 -453.063660
v -191.341400 0.000000 -461.939484
v -187.665009 -97.545158 -453.063660
v -176.776703 -191.341721 -426.776642
v -159.094696 -277.785126 -384.088776
v -135.299042 -353.553375 -326.640778
v -106.303612 -415.734802 -256.639832
v -73.223282 -461.939758 -176.776688
v -37.328892 -490.392639 -90.119919
v -19.030100 490.392639 -95.670784
v -37.328888 461.939758 -187.665115
v -54.193054 415.734802 -272.447357
v -68.974831 353.553375 -346.760010
v -81.105713 277.785126 -407.746429
v -90.119957 191.341721 -453.063660
v -95.670723 97.545158 -480.969788
v -97.544868 0.000000 -490.392273
v -95.670723 -97.545158 -480.969788
v -90.119957 -191.341721 -453.063660
v -81.105713 -277.785126 -407.746429
v -68.974831 -353.553375 -346.760010
v -54.193054 -415.734802 -272.447357
v -37.328888 -461.939758 -187.665115
v -19.030100 -490.392639 -95.670784
v 0.000007 490.392639 -97.545082
v 0.000034 461.939758 -191.341675
v 0.000045 353.553375 -353.553436
v 0.000030 191.341721 -461.939697
v 0.000030 -191.341721 -461.939697
v 0.000045 -353.553375 -353.553436
v 0.000108 -415.734802 -277.784882
v 0.000034 -461.939758 -191.341675
v 0.000007 -490.392639 -97.545082
vn -0.0000 -0.8286 0.5598
vn -0.0000 -0.5528 0.8333
vn -0.0000 -0.1939 0.9810
vn -0.0000 -0.0000 1.0000
vn -0.0000 0.1939 0.9810
vn -0.0000 0.5528 0.8333
vn -0.0392 -0.9796 0.1971
vn -0.0757 -0.9217 0.3804
vn -0.1092 -0.8286 0.5490
vn -0.1385 -0.7041 0.6965
vn -0.1626 -0.5528 0.8173
vn -0.1804 -0.3805 0.9070
vn -0.1914 -0.1939 0.9622
vn -0.1951 -0.0000 0.9808
vn -0.1914 0.1939 0.9622
vn -0.1804 0.3805 0.9070
vn -0.1626 0.5528 0.8173
vn -0.1385 0.7041 0.6965
vn -0.1092 0.8286 0.5490
vn -0.0757 0.9217 0.3804
vn -0.0392 0.9796 0.1971
vn -0.0769 -0.9796 0.1857
vn -0.1484 -0.9217 0.3584
vn -0.2142 -0.8286 0.5172
vn -0.2718 -0.7041 0.6561
vn -0.3189 -0.5528 0.7699
vn -0.3539 -0.3805 0.8544
vn -0.3754 -0.1939 0.9063
vn -0.3827 -0.0000 0.9239
vn -0.3754 0.1939 0.9063
vn -0.3539 0.3805 0.8544
vn -0.3189 0.5528 0.7699
vn -0.2718 0.7041 0.6561
vn -0.2142 0.8286 0.5172
vn -0.1484 0.9217 0.3584
vn -0.0769 0.9796 0.1857
vn -0.1117 -0.9796 0.1671
vn -0.2155 -0.9217 0.3225
vn -0.3110 -0.8286 0.4654
vn -0.3945 -0.7041 0.5905
vn -0.4630 -0.5528 0.6929
vn -0.5138 -0.3805 0.7689
vn -0.5450 -0.1939 0.8157
vn -0.5556 -0.0000 0.8315
vn -0.5450 0.1939 0.8157
vn -0.5138 0.3805 0.7689
vn -0.4630 0.5528 0.6929
vn -0.3945 0.7041 0.5905
vn -0.3110 0.8286 0.4654
vn -0.2155 0.9217 0.3225
vn -0.1117 0.9796 0.1671
vn -0.1421 -0.9796 0.1421
vn -0.2743 -0.9217 0.2743
vn -0.3958 -0.8286 0.3958
vn -0.5021 -0.7041 0.5021
vn -0.5893 -0.5528 0.5893
vn -0.6539 -0.3805 0.6539
vn -0.6937 -0.1939 0.6937
vn -0.7071 -0.0000 0.7071
vn -0.6937 0.1939 0.6937
vn -0.6539 0.3805 0.6539
vn -0.5893 0.5528 0.5893
vn -0.5021 0.7041 0.5021
vn -0.3958 0.8286 0.3958
vn -0.2743 0.9217 0.2743
vn -0.1421 0.9796 0.1421
vn -0.1671 -0.9796 0.1117
vn -0.3225 -0.9217 0.2155
vn -0.4654 -0.8286 0.3110
vn -0.5905 -0.7041 0.3945
vn -0.6929 -0.5528 0.4630
vn -0.7689 -0.3805 0.5138
vn -0.8157 -0.1939 0.5450
vn -0.8315 -0.0000 0.5556
vn -0.8157 0.1939 0.5450
vn -0.7689 0.3805 0.5138
vn -0.6929 0.5528 0.4630
vn -0.5905 0.7041 0.3945
vn -0.4654 0.8286 0.3110
vn -0.3225 0.9217 0.2155
vn -0.1671 0.9796 0.1117
vn -0.0000 -1.0000 -0.0000
vn -0.1857 -0.9796 0.0769
vn -0.3584 -0.9217 0.1484
vn -0.5172 -0.8286 0.2142
vn -0.6561 -0.7041 0.2718
vn -0.7699 -0.5528 0.3189
vn -0.8544 -0.3805 0.3539
vn -0.9063 -0.1939 0.3754
vn -0.9239 -0.0000 0.3827
vn -0.9063 0.1939 0.3754
vn -0.8544 0.3805 0.3539
vn -0.7699 0.5528 0.3189
vn -0.6561 0.7041 0.2718
vn -0.5172 0.8286 0.2142
vn -0.3584 0.9217 0.1484
vn -0.1857 0.9796 0.0769
vn -0.1971 -0.9796 0.0392
vn -0.3804 -0.9217 0.0757
vn -0.5490 -0.8286 0.1092
vn -0.6965 -0.7041 0.1385
vn -0.8173 -0.5528 0.1626
vn -0.9070 -0.3805 0.1804
vn -0.9622 -0.1939 0.1914
vn -0.9808 -0.0000 0.1951
vn -0.9622 0.1939 0.1914
vn -0.9070 0.3805 0.1804
vn -0.8173 0.5528 0.1626
vn -0.6965 0.7041 0.1385
vn -0.5490 0.8286 0.1092
vn -0.3804 0.9217 0.0757
vn -0.1971 0.9796 0.0392
vn -0.2010 -0.9796 -0.0000
vn -0.3879 -0.9217 -0.0000
vn -0.5598 -0.8286 -0.0000
vn -0.7101 -0.7041 -0.0000
vn -0.8333 -0.5528 -0.0000
vn -0.9248 -0.3805 -0.0000
vn -0.9810 -0.1939 -0.0000
vn -1.0000 -0.0000 -0.0000
vn -0.9810 0.1939 -0.0000
vn -0.9248 0.3805 -0.0000
vn -0.8333 0.5528 -0.0000
vn -0.7101 0.7041 -0.0000
vn -0.5598 0.8286 -0.0000
vn -0.3879 0.9217 -0.0000
vn -0.2010 0.9796 -0.0000
vn -0.1971 -0.9796 -0.0392
vn -0.3804 -0.9217 -0.0757
vn -0.5490 -0.8286 -0.1092
vn -0.6965 -0.7041 -0.1385
vn -0.8173 -0.5528 -0.1626
vn -0.9070 -0.3805 -0.1804
vn -0.9622 -0.1939 -0.1914
vn -0.9808 -0.0000 -0.1951
vn -0.9622 0.1939 -0.1914
vn -0.9070 0.3805 -0.1804
vn -0.8173 0.5528 -0.1626
vn -0.6965 0.7041 -0.1385
vn -0.5490 0.8286 -0.1092
vn -0.3804 0.9217 -0.0757
vn -0.1971 0.9796 -0.0392
vn -0.1857 -0.9796 -0.0769
vn -0.3584 -0.9217 -0.1484
vn -0.5172 -0.8286 -0.2142
vn -0.6561 -0.7041 -0.2718
vn -0.7699 -0.5528 -0.3189
vn -0.8544 -0.3805 -0.3539
vn -0.9063 -0.1939 -0.3754
vn -0.9239 -0.0000 -0.3827
vn -0.9063 0.1939 -0.3754
vn -0.8544 0.3805 -0.3539
vn -0.7699 0.5528 -0.3189
vn -0.6561 0.7041 -0.2718
vn -0.5172 0.8286 -0.2142
vn -0.3584 0.9217 -0.1484
vn -0.1857 0.9796 -0.0769
vn -0.1671 -0.9796 -0.1117
vn -0.3225 -0.9217 -0.2155
vn -0.4654 -0.8286 -0.3110
vn -0.5905 -0.7041 -0.3945
vn -0.6929 -0.5528 -0.4630
vn -0.7689 -0.3805 -0.5138
vn -0.8157 -0.1939 -0.5450
vn -0.8315 -0.0000 -0.5556
vn -0.8157 0.1939 -0.5450
vn -0.7689 0.3805 -0.5138
vn -0.6929 0.5528 -0.4630
vn -0.5905 0.7041 -0.3945
vn -0.4654 0.8286 -0.3110
vn -0.3225 0.9217 -0.2155
vn -0.1671 0.9796 -0.1117
vn -0.1421 -0.9796 -0.1421
vn -0.2743 -0.9217 -0.2743
vn -0.3958 -0.8286 -0.3958
vn -0.5021 -0.7041 -0.5021
vn -0.5893 -0.5528 -0.5893
vn -0.6539 -0.3805 -0.6539
vn -0.6937 -0.1939 -0.6937
vn -0.7071 -0.0000 -0.7071
vn -0.6937 0.1939 -0.6937
vn -0.6539 0.3805 -0.6539
vn -0.5893 0.5528 -0.5893
vn -0.5021 0.7041 -0.5021
vn -0.3958 0.8286 -0.3958
vn -0.2743 0.9217 -0.2743
vn -0.1421 0.9796 -0.1421
vn -0.1117 -0.9796 -0.1671
vn -0.2155 -0.9217 -0.3225
vn -0.3110 -0.8286 -0.4654
vn -0.3945 -0.7041 -0.5905
vn -0.4630 -0.5528 -0.6929
vn -0.5138 -0.3805 -0.7689
vn -0.5450 -0.1939 -0.8157
vn -0.5556 -0.0000 -0.8315
vn -0.5450 0.1939 -0.8157
vn -0.5138 0.3805 -0.7689
vn -0.4630 0.5528 -0.6929
vn -0.3945 0.7041 -0.5905
vn -0.3110 0.8286 -0.4654
vn -0.2155 0.9217 -0.3225
vn -0.1117 0.9796 -0.1671
vn -0.0769 -0.9796 -0.1857
vn -0.1484 -0.9217 -0.3584
vn -0.2142 -0.8286 -0.5172
vn -0.2718 -0.7041 -0.6561
vn -0.3189 -0.5528 -0.7699
vn -0.3539 -0.3805 -0.8544
vn -0.3754 -0.1939 -0.9063
vn -0.3827 -0.0000 -0.9239
vn -0.3754 0.1939 -0.9063
vn -0.3539 0.3805 -0.8544
vn -0.3189 0.5528 -0.7699
vn -0.2718 0.7041 -0.6561
vn -0.2142 0.8286 -0.5172
vn -0.1484 0.9217 -0.3584
vn -0.0769 0.9796 -0.1857
vn -0.0392 -0.9796 -0.1971
vn -0.0757 -0.9217 -0.3804
vn -0.1092 -0.8286 -0.5490
vn -0.1385 -0.7041 -0.6965
vn -0.1626 -0.5528 -0.8173
vn -0.1804 -0.3805 -0.9070
vn -0.1914 -0.1939 -0.9622
vn -0.1951 -0.0000 -0.9808
vn -0.1914 0.1939 -0.9622
vn -0.1804 0.3805 -0.9070
vn -0.1626 0.5528 -0.8173
vn -0.1385 0.7041 -0.6965
vn -0.1092 0.8286 -0.5490
vn -0.0757 0.9217 -0.3804
vn -0.0392 0.9796 -0.1971
vn -0.0000 -0.9796 -0.2010
vn -0.0000 -0.9217 -0.3879
vn -0.0000 -0.8286 -0.5598
vn -0.0000 -0.7041 -0.7101
vn -0.0000 -0.5528 -0.8333
vn -0.0000 -0.3805 -0.9248
vn -0.0000 -0.1939 -0.9810
vn -0.0000 -0.0000 -1.0000
vn -0.0000 0.1939 -0.9810
vn -0.0000 0.3805 -0.9248
vn -0.0000 0.5528 -0.8333
vn -0.0000 0.7041 -0.7101
vn -0.0000 0.8286 -0.5598
vn -0.0000 0.9217 -0.3879
vn -0.0000 0.9796 -0.2010
vn 0.0392 -0.9796 -0.1971
vn 0.0757 -0.9217 -0.3804
vn 0.1092 -0.8286 -0.5490
vn 0.1385 -0.7041 -0.6965
vn 0.1626 -0.5528 -0.8173
vn 0.1804 -0.3805 -0.9070
vn 0.1914 -0.1939 -0.9622
vn 0.1951 -0.0000 -0.9808
vn 0.1914 0.1939 -0.9622
vn 0.1804 0.3805 -0.9070
vn 0.1626 0.5528 -0.8173
vn 0.1385 0.7041 -0.6965
vn 0.1092 0.8286 -0.5490
vn 0.0757 0.9217 -0.3804
vn 0.0392 0.9796 -0.1971
vn 0.0769 -0.9796 -0.1857
vn 0.1484 -0.9217 -0.3584
vn 0.2142 -0.8286 -0.5172
vn 0.2718 -0.7041 -0.6561
vn 0.3189 -0.5528 -0.7699
vn 0.3539 -0.3805 -0.8544
vn 0.3754 -0.1939 -0.9063
vn 0.3827 -0.0000 -0.9239
vn 0.3754 0.1939 -0.9063
vn 0.3539 0.3805 -0.8544
vn 0.3189 0.5528 -0.7699
vn 0.2718 0.7041 -0.6561
vn 0.2142 0.8286 -0.5172
vn 0.1484 0.9217 -0.3584
vn 0.0769 0.9796 -0.1857
vn 0.1117 -0.9796 -0.1671
vn 0.2155 -0.9217 -0.3225
vn 0.3110 -0.8286 -0.4654
vn 0.3945 -0.7041 -0.5905
vn 0.4630 -0.5528 -0.6929
vn 0.5138 -0.3805 -0.7689
vn 0.5450 -0.1939 -0.8157
vn 0.5556 -0.0000 -0.8315
vn 0.5450 0.1939 -0.8157
vn 0.5138 0.3805 -0.7689
vn 0.4630 0.5528 -0.6929
vn 0.3945 0.7041 -0.5905
vn 0.3110 0.8286 -0.4654
vn 0.2155 0.9217 -0.3225
vn 0.1117 0.9796 -0.1671
vn 0.1421 -0.9796 -0.1421
vn 0.2743 -0.9217 -0.2743
vn 0.3958 -0.8286 -0.3958
vn 0.5021 -0.7041 -0.5021
vn 0.5893 -0.5528 -0.5893
vn 0.6539 -0.3805 -0.6539
vn 0.6937 -0.1939 -0.6937
vn 0.7071 -0.0000 -0.7071
vn 0.6937 0.1939 -0.6937
vn 0.6539 0.3805 -0.6539
vn 0.5893 0.5528 -0.5893
vn 0.5021 0.7041 -0.5021
vn 0.3958 0.8286 -0.3958
vn 0.2743 0.9217 -0.2743
vn 0.1421 0.9796 -0.1421
vn -0.0000 1.0000 -0.0000
vn 0.1671 -0.9796 -0.1117
vn 0.3225 -0.9217 -0.2155
vn 0.4654 -0.8286 -0.3110
vn 0.5905 -0.7041 -0.3945
vn 0.6929 -0.5528 -0.4630
vn 0.7689 -0.3805 -0.5138
vn 0.8157 -0.1939 -0.5450
vn 0.8315 -0.0000 -0.5556
vn 0.8157 0.1939 -0.5450
vn 0.7689 0.3805 -0.5138
vn 0.6929 0.5528 -0.4630
vn 0.5905 0.7041 -0.3945
vn 0.4654 0.8286 -0.3110
vn 0.3225 0.9217 -0.2155
vn 0.1671 0.9796 -0.1117
vn 0.1857 -0.9796 -0.0769
vn 0.3584 -0.9217 -0.1484
vn 0.5172 -0.8286 -0.2142
vn 0.6561 -0.7041 -0.2718
vn 0.7699 -0.5528 -0.3189
vn 0.8544 -0.3805 -0.3539
vn 0.9063 -0.1939 -0.3754
vn 0.9239 -0.0000 -0.3827
vn 0.9063 0.1939 -0.3754
vn 0.8544 0.3805 -0.3539
vn 0.7699 0.5528 -0.3189
vn 0.6561 0.7041 -0.2718
vn 0.5172 0.8286 -0.2142
vn 0.3584 0.9217 -0.1484
vn 0.1857 0.9796 -0.0769
vn 0.1971 -0.9796 -0.0392
vn 0.3804 -0.9217 -0.0757
vn 0.5490 -0.8286 -0.1092
vn 0.6965 -0.7041 -0.1385
vn 0.8173 -0.5528 -0.1626
vn 0.9070 -0.3805 -0.1804
vn 0.9622 -0.1939 -0.1914
vn 0.9808 -0.0000 -0.1951
vn 0.9622 0.1939 -0.1914
vn 0.9070 0.3805 -0.1804
vn 0.8173 0.5528 -0.1626
vn 0.6965 0.7041 -0.1385
vn 0.5490 0.8286 -0.1092
vn 0.3804 0.9217 -0.0757
vn 0.1971 0.9796 -0.0392
vn 0.2010 -0.9796 -0.0000
vn 0.3879 -0.9217 -0.0000
vn 0.5598 -0.8286 -0.0000
vn 0.7101 -0.7041 -0.0000
vn 0.8333 -0.5528 -0.0000
vn 0.9248 -0.3805 -0.0000
vn 0.9810 -0.1939 -0.0000
vn 1.0000 -0.0000 -0.0000
vn 0.9810 0.1939 -0.0000
vn 0.9248 0.3805 -0.0000
vn 0.8333 0.5528 -0.0000
vn 0.7101 0.7041 -0.0000
vn 0.5598 0.8286 -0.0000
vn 0.3879 0.9217 -0.0000
vn 0.2010 0.9796 -0.0000
vn 0.1971 -0.9796 0.0392
vn 0.3804 -0.9217 0.0757
vn 0.5490 -0.8286 0.1092
vn 0.6965 -0.7041 0.1385
vn 0.8173 -0.5528 0.1626
vn 0.9070 -0.3805 0.1804
vn 0.9622 -0.1939 0.1914
vn 0.9808 -0.0000 0.1951
vn 0.9622 0.1939 0.1914
vn 0.9070 0.3805 0.1804
vn 0.8173 0.5528 0.1626
vn 0.6965 0.7041 0.1385
vn 0.5490 0.8286 0.1092
vn 0.3804 0.9217 0.0757
vn 0.1971 0.9796 0.0392
vn 0.1857 -0.9796 0.0769
vn 0.3584 -0.9217 0.1484
vn 0.5172 -0.8286 0.2142
vn 0.6561 -0.7041 0.2718
vn 0.7699 -0.5528 0.3189
vn 0.8544 -0.3805 0.3539
vn 0.9063 -0.1939 0.3754
vn 0.9239 -0.0000 0.3827
vn 0.9063 0.1939 0.3754
vn 0.8544 0.3805 0.3539
vn 0.7699 0.5528 0.3189
vn 0.6561 0.7041 0.2718
vn 0.5172 0.8286 0.2142
vn 0.3584 0.9217 0.1484
vn 0.1857 0.9796 0.0769
vn 0.1671 -0.9796 0.1117
vn 0.3225 -0.9217 0.2155
vn 0.4654 -0.8286 0.3110
vn 0.5905 -0.7041 0.3945
vn 0.6929 -0.5528 0.4630
vn 0.7689 -0.3805 0.5138
vn 0.8157 -0.1939 0.5450
vn 0.8315 -0.0000 0.5556
vn 0.8157 0.1939 0.5450
vn 0.7689 0.3805 0.5138
vn 0.6929 0.5528 0.4630
vn 0.5905 0.7041 0.3945
vn 0.4654 0.8286 0.3110
vn 0.3225 0.9217 0.2155
vn 0.1671 0.9796 0.1117
vn 0.1421 -0.9796 0.1421
vn 0.2743 -0.9217 0.2743
vn 0.3958 -0.8286 0.3958
vn 0.5021 -0.7041 0.5021
vn 0.5893 -0.5528 0.5893
vn 0.6539 -0.3805 0.6539
vn 0.6937 -0.1939 0.6937
vn 0.7071 -0.0000 0.7071
vn 0.6937 0.1939 0.6937
vn 0.6539 0.3805 0.6539
vn 0.5893 0.5528 0.5893
vn 0.5021 0.7041 0.5021
vn 0.3958 0.8286 0.3958
vn 0.2743 0.9217 0.2743
vn 0.1421 0.9796 0.1421
vn 0.1117 -0.9796 0.1671
vn 0.2155 -0.9217 0.3225
vn 0.3110 -0.8286 0.4654
vn 0.3945 -0.7041 0.5905
vn 0.4630 -0.5528 0.6929
vn 0.5138 -0.3805 0.7689
vn 0.5450 -0.1939 0.8157
vn 0.5556 -0.0000 0.8315
vn 0.5450 0.1939 0.8157
vn 0.5138 0.3805 0.7689
vn 0.4630 0.5528 0.6929
vn 0.3945 0.7041 0.5905
vn 0.3110 0.8286 0.4654
vn 0.2155 0.9217 0.3225
vn 0.1117 0.9796 0.1671
vn 0.0769 -0.9796 0.1857
vn 0.1484 -0.9217 0.3584
vn 0.2142 -0.8286 0.5172
vn 0.2718 -0.7041 0.6561
vn 0.3189 -0.5528 0.7699
vn 0.3539 -0.3805 0.8544
vn 0.3754 -0.1939 0.9063
vn 0.3827 -0.0000 0.9239
vn 0.3754 0.1939 0.9063
vn 0.3539 0.3805 0.8544
vn 0.3189 0.5528 0.7699
vn 0.2718 0.7041 0.6561
vn 0.2142 0.8286 0.5172
vn 0.1484 0.9217 0.3584
vn 0.0769 0.9796 0.1857
vn 0.0392 -0.9796 0.1971
vn 0.0757 -0.9217 0.3804
vn 0.1092 -0.8286 0.5490
vn 0.1385 -0.7041 0.6965
vn 0.1626 -0.5528 0.8173
vn 0.1804 -0.3805 0.9070
vn 0.1914 -0.1939 0.9622
vn 0.1951 -0.0000 0.9808
vn 0.1914 0.1939 0.9622
vn 0.1804 0.3805 0.9070
vn 0.1626 0.5528 0.8173
vn 0.1385 0.7041 0.6965
vn 0.1092 0.8286 0.5490
vn 0.0757 0.9217 0.3804
vn 0.0392 0.9796 0.1971
vn -0.0000 -0.9796 0.2010
vn -0.0000 -0.9217 0.3879
vn -0.0000 -0.7041 0.7101
vn -0.0000 -0.3805 0.9248
vn -0.0000 0.3805 0.9248
vn -0.0000 0.7041 0.7101
vn -0.0000 0.8286 0.5598
vn -0.0000 0.9217 0.3879
vn -0.0000 0.9796 0.2010
vt 0.718750 0.500000
vt 0.750000 0.562500
vt 0.750000 0.500000
vt 0.750000 0.937500
vt 0.718750 0.937500
vt 0.734375 1.000000
vt 0.734375 0.000000
vt 0.718750 0.062500
vt 0.750000 0.062500
vt 0.718750 0.437500
vt 0.750000 0.437500
vt 0.750000 0.875000
vt 0.718750 0.375000
vt 0.750000 0.375000
vt 0.750000 0.812500
vt 0.718750 0.875000
vt 0.718750 0.312500
vt 0.750000 0.312500
vt 0.750000 0.750000
vt 0.718750 0.812500
vt 0.718750 0.250000
vt 0.750000 0.250000
vt 0.718750 0.687500
vt 0.750000 0.687500
vt 0.718750 0.187500
vt 0.750000 0.187500
vt 0.750000 0.625000
vt 0.718750 0.125000
vt 0.750000 0.125000
vt 0.718750 0.625000
vt 0.687500 0.187500
vt 0.718750 0.562500
vt 0.687500 0.625000
vt 0.687500 0.062500
vt 0.687500 0.562500
vt 0.687500 0.937500
vt 0.703125 1.000000
vt 0.703125 0.000000
vt 0.687500 0.437500
vt 0.687500 0.875000
vt 0.687500 0.375000
vt 0.687500 0.812500
vt 0.687500 0.750000
vt 0.718750 0.750000
vt 0.687500 0.312500
vt 0.687500 0.687500
vt 0.687500 0.250000
vt 0.656250 0.375000
vt 0.656250 0.750000
vt 0.656250 0.250000
vt 0.656250 0.187500
vt 0.656250 0.625000
vt 0.656250 0.125000
vt 0.687500 0.125000
vt 0.656250 0.062500
vt 0.687500 0.500000
vt 0.656250 0.562500
vt 0.656250 0.937500
vt 0.671875 1.000000
vt 0.671875 0.000000
vt 0.656250 0.437500
vt 0.656250 0.875000
vt 0.656250 0.812500
vt 0.625000 0.125000
vt 0.656250 0.500000
vt 0.625000 0.562500
vt 0.625000 0.937500
vt 0.640625 1.000000
vt 0.640625 0.000000
vt 0.625000 0.062500
vt 0.625000 0.437500
vt 0.625000 0.875000
vt 0.625000 0.375000
vt 0.656250 0.312500
vt 0.625000 0.812500
vt 0.625000 0.250000
vt 0.656250 0.687500
vt 0.625000 0.750000
vt 0.625000 0.187500
vt 0.625000 0.625000
vt 0.593750 0.750000
vt 0.593750 0.250000
vt 0.625000 0.312500
vt 0.625000 0.687500
vt 0.593750 0.625000
vt 0.593750 0.125000
vt 0.593750 0.062500
vt 0.625000 0.500000
vt 0.593750 0.562500
vt 0.593750 0.937500
vt 0.609375 1.000000
vt 0.609375 0.000000
vt 0.593750 0.437500
vt 0.593750 0.375000
vt 0.593750 0.875000
vt 0.593750 0.500000
vt 0.562500 0.562500
vt 0.562500 0.937500
vt 0.578125 1.000000
vt 0.578125 0.000000
vt 0.562500 0.062500
vt 0.562500 0.437500
vt 0.562500 0.875000
vt 0.562500 0.375000
vt 0.562500 0.812500
vt 0.593750 0.812500
vt 0.593750 0.312500
vt 0.562500 0.750000
vt 0.562500 0.250000
vt 0.593750 0.687500
vt 0.593750 0.187500
vt 0.562500 0.625000
vt 0.562500 0.125000
vt 0.531250 0.250000
vt 0.562500 0.312500
vt 0.562500 0.687500
vt 0.531250 0.750000
vt 0.562500 0.187500
vt 0.531250 0.625000
vt 0.531250 0.125000
vt 0.531250 0.062500
vt 0.562500 0.500000
vt 0.531250 0.562500
vt 0.531250 0.937500
vt 0.546875 1.000000
vt 0.546875 0.000000
vt 0.531250 0.437500
vt 0.531250 0.375000
vt 0.531250 0.875000
vt 0.500000 0.937500
vt 0.515625 1.000000
vt 0.515625 0.000000
vt 0.500000 0.062500
vt 0.500000 0.437500
vt 0.531250 0.500000
vt 0.500000 0.875000
vt 0.500000 0.375000
vt 0.500000 0.812500
vt 0.531250 0.812500
vt 0.531250 0.312500
vt 0.500000 0.750000
vt 0.500000 0.250000
vt 0.531250 0.687500
vt 0.531250 0.187500
vt 0.500000 0.625000
vt 0.500000 0.187500
vt 0.500000 0.125000
vt 0.500000 0.562500
vt 0.500000 0.687500
vt 0.468750 0.750000
vt 0.468750 0.250000
vt 0.468750 0.625000
vt 0.468750 0.125000
vt 0.468750 0.062500
vt 0.500000 0.500000
vt 0.468750 0.562500
vt 0.468750 0.937500
vt 0.484375 1.000000
vt 0.484375 0.000000
vt 0.468750 0.437500
vt 0.468750 0.875000
vt 0.468750 0.375000
vt 0.500000 0.312500
vt 0.437500 0.437500
vt 0.468750 0.500000
vt 0.437500 0.875000
vt 0.437500 0.375000
vt 0.437500 0.812500
vt 0.468750 0.812500
vt 0.468750 0.312500
vt 0.437500 0.750000
vt 0.437500 0.250000
vt 0.468750 0.687500
vt 0.468750 0.187500
vt 0.437500 0.625000
vt 0.437500 0.187500
vt 0.437500 0.125000
vt 0.437500 0.562500
vt 0.437500 0.937500
vt 0.453125 1.000000
vt 0.453125 0.000000
vt 0.437500 0.062500
vt 0.406250 0.250000
vt 0.406250 0.625000
vt 0.437500 0.687500
vt 0.406250 0.187500
vt 0.406250 0.125000
vt 0.437500 0.500000
vt 0.406250 0.562500
vt 0.406250 0.937500
vt 0.421875 1.000000
vt 0.421875 0.000000
vt 0.406250 0.062500
vt 0.406250 0.437500
vt 0.406250 0.875000
vt 0.406250 0.375000
vt 0.406250 0.812500
vt 0.437500 0.312500
vt 0.406250 0.750000
vt 0.375000 0.375000
vt 0.375000 0.812500
vt 0.406250 0.312500
vt 0.375000 0.750000
vt 0.375000 0.250000
vt 0.406250 0.687500
vt 0.375000 0.625000
vt 0.375000 0.187500
vt 0.375000 0.125000
vt 0.406250 0.500000
vt 0.375000 0.562500
vt 0.375000 0.937500
vt 0.390625 1.000000
vt 0.390625 0.000000
vt 0.375000 0.062500
vt 0.375000 0.437500
vt 0.375000 0.875000
vt 0.343750 0.125000
vt 0.343750 0.625000
vt 0.375000 0.500000
vt 0.343750 0.562500
vt 0.343750 0.937500
vt 0.359375 1.000000
vt 0.359375 0.000000
vt 0.343750 0.062500
vt 0.343750 0.437500
vt 0.343750 0.875000
vt 0.343750 0.375000
vt 0.343750 0.812500
vt 0.375000 0.312500
vt 0.343750 0.750000
vt 0.343750 0.250000
vt 0.375000 0.687500
vt 0.312500 0.812500
vt 0.343750 0.312500
vt 0.312500 0.375000
vt 0.312500 0.750000
vt 0.312500 0.250000
vt 0.343750 0.687500
vt 0.343750 0.187500
vt 0.312500 0.625000
vt 0.312500 0.187500
vt 0.312500 0.125000
vt 0.343750 0.500000
vt 0.312500 0.562500
vt 0.312500 0.937500
vt 0.328125 1.000000
vt 0.328125 0.000000
vt 0.312500 0.062500
vt 0.312500 0.437500
vt 0.312500 0.875000
vt 0.281250 0.625000
vt 0.281250 0.125000
vt 0.312500 0.500000
vt 0.281250 0.562500
vt 0.281250 0.937500
vt 0.296875 1.000000
vt 0.296875 0.000000
vt 0.281250 0.062500
vt 0.281250 0.437500
vt 0.281250 0.875000
vt 0.281250 0.375000
vt 0.281250 0.812500
vt 0.312500 0.312500
vt 0.281250 0.750000
vt 0.281250 0.250000
vt 0.312500 0.687500
vt 0.281250 0.187500
vt 0.281250 0.312500
vt 0.250000 0.375000
vt 0.250000 0.750000
vt 0.250000 0.250000
vt 0.281250 0.687500
vt 0.250000 0.625000
vt 0.250000 0.187500
vt 0.250000 0.062500
vt 0.281250 0.500000
vt 0.250000 0.562500
vt 0.250000 0.937500
vt 0.265625 1.000000
vt 0.265625 0.000000
vt 0.250000 0.437500
vt 0.250000 0.875000
vt 0.250000 0.812500
vt 0.218750 0.062500
vt 0.250000 0.125000
vt 0.250000 0.500000
vt 0.218750 0.562500
vt 0.218750 0.937500
vt 0.234375 1.000000
vt 0.234375 0.000000
vt 0.218750 0.437500
vt 0.218750 0.375000
vt 0.218750 0.875000
vt 0.250000 0.312500
vt 0.218750 0.750000
vt 0.218750 0.250000
vt 0.250000 0.687500
vt 0.218750 0.625000
vt 0.218750 0.125000
vt 0.187500 0.750000
vt 0.218750 0.812500
vt 0.187500 0.250000
vt 0.218750 0.312500
vt 0.218750 0.687500
vt 0.218750 0.187500
vt 0.187500 0.625000
vt 0.187500 0.125000
vt 0.187500 0.062500
vt 0.218750 0.500000
vt 0.187500 0.562500
vt 0.187500 0.937500
vt 0.203125 1.000000
vt 0.203125 0.000000
vt 0.187500 0.437500
vt 0.187500 0.375000
vt 0.187500 0.812500
vt 0.187500 0.500000
vt 0.156250 0.562500
vt 0.156250 0.937500
vt 0.171875 1.000000
vt 0.171875 0.000000
vt 0.156250 0.062500
vt 0.156250 0.437500
vt 0.156250 0.875000
vt 0.187500 0.875000
vt 0.156250 0.375000
vt 0.187500 0.312500
vt 0.156250 0.750000
vt 0.156250 0.250000
vt 0.187500 0.687500
vt 0.187500 0.187500
vt 0.156250 0.625000
vt 0.156250 0.125000
vt 0.125000 0.250000
vt 0.156250 0.312500
vt 0.156250 0.687500
vt 0.125000 0.750000
vt 0.156250 0.187500
vt 0.125000 0.625000
vt 0.125000 0.125000
vt 0.156250 0.500000
vt 0.125000 0.562500
vt 0.125000 0.937500
vt 0.140625 1.000000
vt 0.140625 0.000000
vt 0.125000 0.062500
vt 0.125000 0.437500
vt 0.125000 0.875000
vt 0.125000 0.375000
vt 0.156250 0.812500
vt 0.109375 0.000000
vt 0.093750 0.062500
vt 0.093750 0.437500
vt 0.125000 0.500000
vt 0.093750 0.937500
vt 0.093750 0.375000
vt 0.125000 0.812500
vt 0.093750 0.875000
vt 0.125000 0.312500
vt 0.093750 0.750000
vt 0.093750 0.250000
vt 0.125000 0.687500
vt 0.125000 0.187500
vt 0.093750 0.625000
vt 0.093750 0.125000
vt 0.093750 0.562500
vt 0.109375 1.000000
vt 0.093750 0.187500
vt 0.062500 0.250000
vt 0.062500 0.625000
vt 0.093750 0.687500
vt 0.062500 0.125000
vt 0.093750 0.500000
vt 0.062500 0.562500
vt 0.062500 0.937500
vt 0.078125 1.000000
vt 0.078125 0.000000
vt 0.062500 0.062500
vt 0.062500 0.437500
vt 0.062500 0.875000
vt 0.062500 0.375000
vt 0.093750 0.812500
vt 0.093750 0.312500
vt 0.062500 0.750000
vt 0.031250 0.937500
vt 0.031250 0.375000
vt 0.062500 0.812500
vt 0.031250 0.875000
vt 0.062500 0.312500
vt 0.031250 0.750000
vt 0.031250 0.250000
vt 0.062500 0.687500
vt 0.062500 0.187500
vt 0.031250 0.625000
vt 0.031250 0.125000
vt 0.031250 0.062500
vt 0.062500 0.500000
vt 0.031250 0.562500
vt 0.046875 1.000000
vt 0.046875 0.000000
vt 0.031250 0.437500
vt 0.000000 0.625000
vt 0.031250 0.687500
vt 0.000000 0.125000
vt 0.031250 0.187500
vt 0.031250 0.500000
vt 0.000000 0.562500
vt 0.000000 0.937500
vt 0.015625 1.000000
vt 0.015625 0.000000
vt 0.000000 0.062500
vt 0.000000 0.437500
vt 0.000000 0.875000
vt 0.000000 0.375000
vt 0.031250 0.812500
vt 0.031250 0.312500
vt 0.000000 0.750000
vt 0.000000 0.250000
vt 0.968750 0.375000
vt 1.000000 0.437500
vt 1.000000 0.375000
vt 1.000000 0.812500
vt 0.968750 0.875000
vt 1.000000 0.875000
vt 1.000000 0.312500
vt 0.968750 0.750000
vt 1.000000 0.750000
vt 0.968750 0.250000
vt 1.000000 0.250000
vt 1.000000 0.687500
vt 1.000000 0.187500
vt 0.968750 0.625000
vt 1.000000 0.625000
vt 0.968750 0.125000
vt 1.000000 0.125000
vt 1.000000 0.562500
vt 0.968750 0.062500
vt 1.000000 0.062500
vt 1.000000 0.500000
vt 0.968750 0.562500
vt 1.000000 0.937500
vt 0.968750 0.937500
vt 0.984375 1.000000
vt 0.984375 0.000000
vt 0.968750 0.437500
vt 0.937500 0.187500
vt 0.968750 0.187500
vt 0.937500 0.625000
vt 0.937500 0.062500
vt 0.968750 0.500000
vt 0.937500 0.562500
vt 0.937500 0.937500
vt 0.953125 1.000000
vt 0.953125 0.000000
vt 0.937500 0.437500
vt 0.937500 0.375000
vt 0.937500 0.812500
vt 0.968750 0.812500
vt 0.968750 0.312500
vt 0.937500 0.750000
vt 0.937500 0.250000
vt 0.968750 0.687500
vt 0.906250 0.875000
vt 0.937500 0.875000
vt 0.937500 0.312500
vt 0.906250 0.375000
vt 0.906250 0.750000
vt 0.906250 0.250000
vt 0.937500 0.687500
vt 0.906250 0.625000
vt 0.906250 0.125000
vt 0.937500 0.125000
vt 0.937500 0.500000
vt 0.906250 0.562500
vt 0.906250 0.937500
vt 0.921875 1.000000
vt 0.921875 0.000000
vt 0.906250 0.062500
vt 0.906250 0.437500
vt 0.875000 0.625000
vt 0.875000 0.125000
vt 0.906250 0.500000
vt 0.875000 0.562500
vt 0.875000 0.937500
vt 0.890625 1.000000
vt 0.890625 0.000000
vt 0.875000 0.062500
vt 0.875000 0.437500
vt 0.875000 0.875000
vt 0.875000 0.375000
vt 0.906250 0.812500
vt 0.906250 0.312500
vt 0.875000 0.750000
vt 0.875000 0.250000
vt 0.906250 0.687500
vt 0.906250 0.187500
vt 0.875000 0.312500
vt 0.843750 0.375000
vt 0.843750 0.750000
vt 0.875000 0.812500
vt 0.843750 0.250000
vt 0.875000 0.687500
vt 0.875000 0.187500
vt 0.843750 0.625000
vt 0.843750 0.125000
vt 0.875000 0.500000
vt 0.843750 0.562500
vt 0.843750 0.937500
vt 0.859375 1.000000
vt 0.859375 0.000000
vt 0.843750 0.062500
vt 0.843750 0.437500
vt 0.843750 0.875000
vt 0.812500 0.062500
vt 0.843750 0.500000
vt 0.812500 0.562500
vt 0.812500 0.937500
vt 0.828125 1.000000
vt 0.828125 0.000000
vt 0.812500 0.437500
vt 0.812500 0.375000
vt 0.843750 0.812500
vt 0.812500 0.875000
vt 0.843750 0.312500
vt 0.812500 0.750000
vt 0.812500 0.250000
vt 0.843750 0.687500
vt 0.843750 0.187500
vt 0.812500 0.625000
vt 0.812500 0.125000
vt 0.781250 0.250000
vt 0.812500 0.312500
vt 0.812500 0.687500
vt 0.781250 0.750000
vt 0.812500 0.187500
vt 0.781250 0.625000
vt 0.781250 0.125000
vt 0.812500 0.500000
vt 0.781250 0.562500
vt 0.781250 0.937500
vt 0.796875 1.000000
vt 0.796875 0.000000
vt 0.781250 0.062500
vt 0.781250 0.437500
vt 0.781250 0.875000
vt 0.781250 0.375000
vt 0.812500 0.812500
vt 0.765625 1.000000
vt 0.765625 0.000000
vt 0.781250 0.500000
vt 0.781250 0.812500
vt 0.781250 0.312500
vt 0.781250 0.687500
vt 0.781250 0.187500
vt 0.000000 0.687500
vt 0.000000 0.187500
vt 0.000000 0.500000
vt 0.000000 0.812500
vt 0.000000 0.312500
s 1
usemtl マテリアル
f 14/1/14 3/2/3 4/3/4
f 474/4/474 7/5/7 82/6/82
f 308/7/308 21/8/21 482/9/482
f 15/10/15 4/3/4 5/11/5
f 475/12/475 7/5/7 474/4/474
f 16/13/16 5/11/5 478/14/478
f 1/15/1 8/16/8 475/12/475
f 17/17/17 478/14/478 6/18/6
f 476/19/476 9/20/9 1/15/1
f 18/21/18 6/18/6 479/22/479
f 11/23/11 476/19/476 2/24/2
f 19/25/19 479/22/479 480/26/480
f 477/27/477 11/23/11 2/24/2
f 20/28/20 480/26/480 481/29/481
f 3/2/3 12/30/12 477/27/477
f 21/8/21 481/29/481 482/9/482
f 20/28/20 34/31/34 19/25/19
f 13/32/13 27/33/27 12/30/12
f 36/34/36 20/28/20 21/8/21
f 14/1/14 28/35/28 13/32/13
f 7/5/7 22/36/22 82/37/82
f 308/38/308 36/34/36 21/8/21
f 30/39/30 14/1/14 15/10/15
f 23/40/23 7/5/7 8/16/8
f 31/41/31 15/10/15 16/13/16
f 24/42/24 8/16/8 9/20/9
f 17/17/17 31/41/31 16/13/16
f 25/43/25 9/20/9 10/44/10
f 18/21/18 32/45/32 17/17/17
f 26/46/26 10/44/10 11/23/11
f 19/25/19 33/47/33 18/21/18
f 27/33/27 11/23/11 12/30/12
f 32/45/32 46/48/46 31/41/31
f 40/49/40 24/42/24 25/43/25
f 48/50/48 32/45/32 33/47/33
f 26/46/26 40/49/40 25/43/25
f 49/51/49 33/47/33 34/31/34
f 42/52/42 26/46/26 27/33/27
f 50/53/50 34/31/34 35/54/35
f 28/35/28 42/52/42 27/33/27
f 51/55/51 35/54/35 36/34/36
f 29/56/29 43/57/43 28/35/28
f 22/36/22 37/58/37 82/59/82
f 308/60/308 51/55/51 36/34/36
f 45/61/45 29/56/29 30/39/30
f 38/62/38 22/36/22 23/40/23
f 46/48/46 30/39/30 31/41/31
f 39/63/39 23/40/23 24/42/24
f 51/55/51 65/64/65 50/53/50
f 44/65/44 58/66/58 43/57/43
f 37/58/37 52/67/52 82/68/82
f 308/69/308 66/70/66 51/55/51
f 60/71/60 44/65/44 45/61/45
f 53/72/53 37/58/37 38/62/38
f 61/73/61 45/61/45 46/48/46
f 39/63/39 53/72/53 38/62/38
f 47/74/47 61/73/61 46/48/46
f 40/49/40 54/75/54 39/63/39
f 63/76/63 47/74/47 48/50/48
f 41/77/41 55/78/55 40/49/40
f 64/79/64 48/50/48 49/51/49
f 57/80/57 41/77/41 42/52/42
f 65/64/65 49/51/49 50/53/50
f 43/57/43 57/80/57 42/52/42
f 70/81/70 54/75/54 55/78/55
f 78/82/78 62/83/62 63/76/63
f 56/84/56 70/81/70 55/78/55
f 64/79/64 78/82/78 63/76/63
f 72/85/72 56/84/56 57/80/57
f 80/86/80 64/79/64 65/64/65
f 58/66/58 72/85/72 57/80/57
f 81/87/81 65/64/65 66/70/66
f 59/88/59 73/89/73 58/66/58
f 52/67/52 67/90/67 82/91/82
f 308/92/308 81/87/81 66/70/66
f 75/93/75 59/88/59 60/71/60
f 53/72/53 67/90/67 52/67/52
f 76/94/76 60/71/60 61/73/61
f 54/75/54 68/95/68 53/72/53
f 62/83/62 76/94/76 61/73/61
f 74/96/74 89/97/89 73/89/73
f 67/90/67 83/98/83 82/99/82
f 308/100/308 97/101/97 81/87/81
f 91/102/91 74/96/74 75/93/75
f 84/103/84 67/90/67 68/95/68
f 92/104/92 75/93/75 76/94/76
f 85/105/85 68/95/68 69/106/69
f 77/107/77 92/104/92 76/94/76
f 86/108/86 69/106/69 70/81/70
f 94/109/94 77/107/77 78/82/78
f 71/110/71 86/108/86 70/81/70
f 79/111/79 94/109/94 78/82/78
f 88/112/88 71/110/71 72/85/72
f 96/113/96 79/111/79 80/86/80
f 73/89/73 88/112/88 72/85/72
f 81/87/81 96/113/96 80/86/80
f 109/114/109 93/115/93 94/109/94
f 87/116/87 101/117/101 86/108/86
f 95/118/95 109/114/109 94/109/94
f 103/119/103 87/116/87 88/112/88
f 111/120/111 95/118/95 96/113/96
f 89/97/89 103/119/103 88/112/88
f 112/121/112 96/113/96 97/101/97
f 90/122/90 104/123/104 89/97/89
f 83/98/83 98/124/98 82/125/82
f 308/126/308 112/121/112 97/101/97
f 106/127/106 90/122/90 91/102/91
f 84/103/84 98/124/98 83/98/83
f 107/128/107 91/102/91 92/104/92
f 85/105/85 99/129/99 84/103/84
f 93/115/93 107/128/107 92/104/92
f 101/117/101 85/105/85 86/108/86
f 98/124/98 113/130/113 82/131/82
f 308/132/308 127/133/127 112/121/112
f 121/134/121 105/135/105 106/127/106
f 114/136/114 98/124/98 99/129/99
f 122/137/122 106/127/106 107/128/107
f 115/138/115 99/129/99 100/139/100
f 108/140/108 122/137/122 107/128/107
f 116/141/116 100/139/100 101/117/101
f 124/142/124 108/140/108 109/114/109
f 102/143/102 116/141/116 101/117/101
f 110/144/110 124/142/124 109/114/109
f 118/145/118 102/143/102 103/119/103
f 111/120/111 125/146/125 110/144/110
f 104/123/104 118/145/118 103/119/103
f 112/121/112 126/147/126 111/120/111
f 105/135/105 119/148/119 104/123/104
f 117/149/117 131/150/131 116/141/116
f 125/146/125 139/151/139 124/142/124
f 133/152/133 117/149/117 118/145/118
f 141/153/141 125/146/125 126/147/126
f 119/148/119 133/152/133 118/145/118
f 142/154/142 126/147/126 127/133/127
f 120/155/120 134/156/134 119/148/119
f 113/130/113 128/157/128 82/158/82
f 308/159/308 142/154/142 127/133/127
f 136/160/136 120/155/120 121/134/121
f 129/161/129 113/130/113 114/136/114
f 137/162/137 121/134/121 122/137/122
f 115/138/115 129/161/129 114/136/114
f 123/163/123 137/162/137 122/137/122
f 131/150/131 115/138/115 116/141/116
f 139/151/139 123/163/123 124/142/124
f 151/164/151 135/165/135 136/160/136
f 144/166/144 128/157/128 129/161/129
f 152/167/152 136/160/136 137/162/137
f 145/168/145 129/161/129 130/169/130
f 138/170/138 152/167/152 137/162/137
f 146/171/146 130/169/130 131/150/131
f 154/172/154 138/170/138 139/151/139
f 132/173/132 146/171/146 131/150/131
f 140/174/140 154/172/154 139/151/139
f 148/175/148 132/173/132 133/152/133
f 141/153/141 155/176/155 140/174/140
f 134/156/134 148/175/148 133/152/133
f 142/154/142 156/177/156 141/153/141
f 135/165/135 149/178/149 134/156/134
f 128/157/128 143/179/143 82/180/82
f 308/181/308 157/182/157 142/154/142
f 155/176/155 169/183/169 154/172/154
f 163/184/163 147/185/147 148/175/148
f 156/177/156 170/186/170 155/176/155
f 149/178/149 163/184/163 148/175/148
f 157/182/157 171/187/171 156/177/156
f 150/188/150 164/189/164 149/178/149
f 143/179/143 158/190/158 82/191/82
f 308/192/308 172/193/172 157/182/157
f 166/194/166 150/188/150 151/164/151
f 159/195/159 143/179/143 144/166/144
f 167/196/167 151/164/151 152/167/152
f 160/197/160 144/166/144 145/168/145
f 153/198/153 167/196/167 152/167/152
f 161/199/161 145/168/145 146/171/146
f 169/183/169 153/198/153 154/172/154
f 147/185/147 161/199/161 146/171/146
f 182/200/182 166/194/166 167/196/167
f 175/201/175 159/195/159 160/197/160
f 168/202/168 182/200/182 167/196/167
f 176/203/176 160/197/160 161/199/161
f 184/204/184 168/202/168 169/183/169
f 162/205/162 176/203/176 161/199/161
f 170/186/170 184/204/184 169/183/169
f 178/206/178 162/205/162 163/184/163
f 171/187/171 185/207/185 170/186/170
f 164/189/164 178/206/178 163/184/163
f 172/193/172 186/208/186 171/187/171
f 165/209/165 179/210/179 164/189/164
f 158/190/158 173/211/173 82/212/82
f 308/213/308 187/214/187 172/193/172
f 181/215/181 165/209/165 166/194/166
f 174/216/174 158/190/158 159/195/159
f 201/217/201 185/207/185 186/208/186
f 179/210/179 193/218/193 178/206/178
f 187/214/187 201/217/201 186/208/186
f 180/219/180 194/220/194 179/210/179
f 173/211/173 188/221/188 82/222/82
f 308/223/308 202/224/202 187/214/187
f 196/225/196 180/219/180 181/215/181
f 189/226/189 173/211/173 174/216/174
f 197/227/197 181/215/181 182/200/182
f 190/228/190 174/216/174 175/201/175
f 183/229/183 197/227/197 182/200/182
f 191/230/191 175/201/175 176/203/176
f 199/231/199 183/229/183 184/204/184
f 177/232/177 191/230/191 176/203/176
f 185/207/185 199/231/199 184/204/184
f 193/218/193 177/232/177 178/206/178
f 205/233/205 189/226/189 190/228/190
f 198/234/198 212/235/212 197/227/197
f 206/236/206 190/228/190 191/230/191
f 214/237/214 198/234/198 199/231/199
f 192/238/192 206/236/206 191/230/191
f 200/239/200 214/237/214 199/231/199
f 208/240/208 192/238/192 193/218/193
f 201/217/201 215/241/215 200/239/200
f 194/220/194 208/240/208 193/218/193
f 202/224/202 216/242/216 201/217/201
f 195/243/195 209/244/209 194/220/194
f 188/221/188 203/245/203 82/246/82
f 308/247/308 217/248/217 202/224/202
f 211/249/211 195/243/195 196/225/196
f 204/250/204 188/221/188 189/226/189
f 212/235/212 196/225/196 197/227/197
f 209/244/209 223/251/223 208/240/208
f 217/248/217 231/252/231 216/242/216
f 210/253/210 224/254/224 209/244/209
f 203/245/203 218/255/218 82/256/82
f 308/257/308 232/258/232 217/248/217
f 226/259/226 210/253/210 211/249/211
f 219/260/219 203/245/203 204/250/204
f 227/261/227 211/249/211 212/235/212
f 220/262/220 204/250/204 205/233/205
f 213/263/213 227/261/227 212/235/212
f 221/264/221 205/233/205 206/236/206
f 229/265/229 213/263/213 214/237/214
f 207/266/207 221/264/221 206/236/206
f 215/241/215 229/265/229 214/237/214
f 223/251/223 207/266/207 208/240/208
f 216/242/216 230/267/230 215/241/215
f 228/268/228 242/269/242 227/261/227
f 236/270/236 220/262/220 221/264/221
f 244/271/244 228/268/228 229/265/229
f 222/272/222 236/270/236 221/264/221
f 230/267/230 244/271/244 229/265/229
f 238/273/238 222/272/222 223/251/223
f 231/252/231 245/274/245 230/267/230
f 224/254/224 238/273/238 223/251/223
f 247/275/247 231/252/231 232/258/232
f 225/276/225 239/277/239 224/254/224
f 218/255/218 233/278/233 82/279/82
f 308/280/308 247/275/247 232/258/232
f 241/281/241 225/276/225 226/259/226
f 234/282/234 218/255/218 219/260/219
f 242/269/242 226/259/226 227/261/227
f 235/283/235 219/260/219 220/262/220
f 262/284/262 246/285/246 247/275/247
f 240/286/240 254/287/254 239/277/239
f 233/278/233 248/288/248 82/289/82
f 308/290/308 262/284/262 247/275/247
f 256/291/256 240/286/240 241/281/241
f 234/282/234 248/288/248 233/278/233
f 257/292/257 241/281/241 242/269/242
f 235/283/235 249/293/249 234/282/234
f 243/294/243 257/292/257 242/269/242
f 251/295/251 235/283/235 236/270/236
f 259/296/259 243/294/243 244/271/244
f 237/297/237 251/295/251 236/270/236
f 245/274/245 259/296/259 244/271/244
f 253/298/253 237/297/237 238/273/238
f 261/299/261 245/274/245 246/285/246
f 239/277/239 253/298/253 238/273/238
f 266/300/266 250/301/250 251/295/251
f 274/302/274 258/303/258 259/296/259
f 252/304/252 266/300/266 251/295/251
f 260/305/260 274/302/274 259/296/259
f 268/306/268 252/304/252 253/298/253
f 276/307/276 260/305/260 261/299/261
f 254/287/254 268/306/268 253/298/253
f 277/308/277 261/299/261 262/284/262
f 255/309/255 269/310/269 254/287/254
f 248/288/248 263/311/263 82/312/82
f 308/313/308 277/308/277 262/284/262
f 271/314/271 255/309/255 256/291/256
f 249/293/249 263/311/263 248/288/248
f 272/315/272 256/291/256 257/292/257
f 265/316/265 249/293/249 250/301/250
f 258/303/258 272/315/272 257/292/257
f 270/317/270 284/318/284 269/310/269
f 263/311/263 278/319/278 82/320/82
f 308/321/308 292/322/292 277/308/277
f 286/323/286 270/317/270 271/314/271
f 279/324/279 263/311/263 264/325/264
f 287/326/287 271/314/271 272/315/272
f 265/316/265 279/324/279 264/325/264
f 273/327/273 287/326/287 272/315/272
f 281/328/281 265/316/265 266/300/266
f 289/329/289 273/327/273 274/302/274
f 267/330/267 281/328/281 266/300/266
f 275/331/275 289/329/289 274/302/274
f 283/332/283 267/330/267 268/306/268
f 291/333/291 275/331/275 276/307/276
f 269/310/269 283/332/283 268/306/268
f 277/308/277 291/333/291 276/307/276
f 304/334/304 288/335/288 289/329/289
f 282/336/282 296/337/296 281/328/281
f 290/338/290 304/334/304 289/329/289
f 298/339/298 282/336/282 283/332/283
f 306/340/306 290/338/290 291/333/291
f 284/318/284 298/339/298 283/332/283
f 292/322/292 306/340/306 291/333/291
f 285/341/285 299/342/299 284/318/284
f 278/319/278 293/343/293 82/344/82
f 308/345/308 307/346/307 292/322/292
f 301/347/301 285/341/285 286/323/286
f 294/348/294 278/319/278 279/324/279
f 302/349/302 286/323/286 287/326/287
f 280/350/280 294/348/294 279/324/279
f 288/335/288 302/349/302 287/326/287
f 296/337/296 280/350/280 281/328/281
f 308/351/308 323/352/323 307/346/307
f 317/353/317 300/354/300 301/347/301
f 294/348/294 309/355/309 293/343/293
f 318/356/318 301/347/301 302/349/302
f 295/357/295 310/358/310 294/348/294
f 303/359/303 318/356/318 302/349/302
f 312/360/312 295/357/295 296/337/296
f 320/361/320 303/359/303 304/334/304
f 297/362/297 312/360/312 296/337/296
f 305/363/305 320/361/320 304/334/304
f 314/364/314 297/362/297 298/339/298
f 322/365/322 305/363/305 306/340/306
f 299/342/299 314/364/314 298/339/298
f 323/352/323 306/340/306 307/346/307
f 300/354/300 315/366/315 299/342/299
f 293/343/293 309/355/309 82/367/82
f 321/368/321 335/369/335 320/361/320
f 329/370/329 313/371/313 314/364/314
f 337/372/337 321/368/321 322/365/322
f 315/366/315 329/370/329 314/364/314
f 323/352/323 337/372/337 322/365/322
f 316/373/316 330/374/330 315/366/315
f 309/355/309 324/375/324 82/376/82
f 308/377/308 338/378/338 323/352/323
f 332/379/332 316/373/316 317/353/317
f 325/380/325 309/355/309 310/358/310
f 333/381/333 317/353/317 318/356/318
f 311/382/311 325/380/325 310/358/310
f 319/383/319 333/381/333 318/356/318
f 327/384/327 311/382/311 312/360/312
f 335/369/335 319/383/319 320/361/320
f 313/371/313 327/384/327 312/360/312
f 325/380/325 339/385/339 324/375/324
f 348/386/348 332/379/332 333/381/333
f 326/387/326 340/388/340 325/380/325
f 334/389/334 348/386/348 333/381/333
f 342/390/342 326/387/326 327/384/327
f 350/391/350 334/389/334 335/369/335
f 328/392/328 342/390/342 327/384/327
f 336/393/336 350/391/350 335/369/335
f 344/394/344 328/392/328 329/370/329
f 352/395/352 336/393/336 337/372/337
f 330/374/330 344/394/344 329/370/329
f 353/396/353 337/372/337 338/378/338
f 331/397/331 345/398/345 330/374/330
f 324/375/324 339/385/339 82/399/82
f 308/400/308 353/396/353 338/378/338
f 347/401/347 331/397/331 332/379/332
f 359/402/359 343/403/343 344/394/344
f 367/404/367 351/405/351 352/395/352
f 345/398/345 359/402/359 344/394/344
f 353/396/353 367/404/367 352/395/352
f 346/406/346 360/407/360 345/398/345
f 339/385/339 354/408/354 82/409/82
f 308/410/308 368/411/368 353/396/353
f 362/412/362 346/406/346 347/401/347
f 355/413/355 339/385/339 340/388/340
f 363/414/363 347/401/347 348/386/348
f 341/415/341 355/413/355 340/388/340
f 349/416/349 363/414/363 348/386/348
f 357/417/357 341/415/341 342/390/342
f 365/418/365 349/416/349 350/391/350
f 343/403/343 357/417/357 342/390/342
f 351/405/351 365/418/365 350/391/350
f 378/419/378 362/420/362 363/421/363
f 356/422/356 370/423/370 355/424/355
f 364/425/364 378/419/378 363/421/363
f 372/426/372 356/422/356 357/427/357
f 380/428/380 364/425/364 365/429/365
f 358/430/358 372/426/372 357/427/357
f 366/431/366 380/428/380 365/429/365
f 374/432/374 358/430/358 359/433/359
f 382/434/382 366/431/366 367/435/367
f 360/436/360 374/432/374 359/433/359
f 383/437/383 367/435/367 368/438/368
f 361/439/361 375/440/375 360/436/360
f 354/441/354 369/442/369 82/443/82
f 308/444/308 383/437/383 368/438/368
f 377/445/377 361/439/361 362/420/362
f 370/423/370 354/441/354 355/424/355
f 382/434/382 396/446/396 381/447/381
f 375/440/375 389/448/389 374/432/374
f 398/449/398 382/434/382 383/437/383
f 376/450/376 390/451/390 375/440/375
f 369/442/369 384/452/384 82/453/82
f 308/454/308 398/449/398 383/437/383
f 392/455/392 376/450/376 377/445/377
f 370/423/370 384/452/384 369/442/369
f 393/456/393 377/445/377 378/419/378
f 386/457/386 370/423/370 371/458/371
f 379/459/379 393/456/393 378/419/378
f 387/460/387 371/458/371 372/426/372
f 395/461/395 379/459/379 380/428/380
f 373/462/373 387/460/387 372/426/372
f 381/447/381 395/461/395 380/428/380
f 389/448/389 373/462/373 374/432/374
f 386/457/386 400/463/400 385/464/385
f 394/465/394 408/466/408 393/456/393
f 402/467/402 386/457/386 387/460/387
f 410/468/410 394/465/394 395/461/395
f 388/469/388 402/467/402 387/460/387
f 396/446/396 410/468/410 395/461/395
f 404/470/404 388/469/388 389/448/389
f 412/471/412 396/446/396 397/472/397
f 390/451/390 404/470/404 389/448/389
f 398/449/398 412/471/412 397/472/397
f 391/473/391 405/474/405 390/451/390
f 384/452/384 399/475/399 82/476/82
f 308/477/308 413/478/413 398/449/398
f 407/479/407 391/473/391 392/455/392
f 400/463/400 384/452/384 385/464/385
f 408/466/408 392/455/392 393/456/393
f 405/474/405 419/480/419 404/470/404
f 413/478/413 427/481/427 412/471/412
f 406/482/406 420/483/420 405/474/405
f 399/475/399 414/484/414 82/485/82
f 308/486/308 428/487/428 413/478/413
f 422/488/422 406/482/406 407/479/407
f 415/489/415 399/475/399 400/463/400
f 423/490/423 407/479/407 408/466/408
f 401/491/401 415/489/415 400/463/400
f 409/492/409 423/490/423 408/466/408
f 417/493/417 401/491/401 402/467/402
f 425/494/425 409/492/409 410/468/410
f 403/495/403 417/493/417 402/467/402
f 411/496/411 425/494/425 410/468/410
f 419/480/419 403/495/403 404/470/404
f 427/481/427 411/496/411 412/471/412
f 424/497/424 438/498/438 423/490/423
f 432/499/432 416/500/416 417/493/417
f 440/501/440 424/497/424 425/494/425
f 418/502/418 432/499/432 417/493/417
f 426/503/426 440/501/440 425/494/425
f 434/504/434 418/502/418 419/480/419
f 442/505/442 426/503/426 427/481/427
f 420/483/420 434/504/434 419/480/419
f 428/487/428 442/505/442 427/481/427
f 421/506/421 435/507/435 420/483/420
f 414/484/414 429/508/429 82/509/82
f 308/510/308 443/511/443 428/487/428
f 437/512/437 421/506/421 422/488/422
f 430/513/430 414/484/414 415/489/415
f 438/498/438 422/488/422 423/490/423
f 416/500/416 430/513/430 415/489/415
f 458/514/458 442/505/442 443/511/443
f 436/515/436 450/516/450 435/507/435
f 429/508/429 444/517/444 82/518/82
f 308/519/308 458/514/458 443/511/443
f 452/520/452 436/515/436 437/512/437
f 430/513/430 444/517/444 429/508/429
f 453/521/453 437/512/437 438/498/438
f 431/522/431 445/523/445 430/513/430
f 439/524/439 453/521/453 438/498/438
f 447/525/447 431/522/431 432/499/432
f 455/526/455 439/524/439 440/501/440
f 433/527/433 447/525/447 432/499/432
f 441/528/441 455/526/455 440/501/440
f 449/529/449 433/527/433 434/504/434
f 457/530/457 441/528/441 442/505/442
f 435/507/435 449/529/449 434/504/434
f 470/531/470 454/532/454 455/526/455
f 448/533/448 462/534/462 447/525/447
f 456/535/456 470/531/470 455/526/455
f 464/536/464 448/533/448 449/529/449
f 472/537/472 456/535/456 457/530/457
f 450/516/450 464/536/464 449/529/449
f 458/514/458 472/537/472 457/530/457
f 451/538/451 465/539/465 450/516/450
f 444/517/444 459/540/459 82/541/82
f 308/542/308 473/543/473 458/514/458
f 467/544/467 451/538/451 452/520/452
f 460/545/460 444/517/444 445/523/445
f 468/546/468 452/520/452 453/521/453
f 446/547/446 460/545/460 445/523/445
f 454/532/454 468/546/468 453/521/453
f 462/534/462 446/547/446 447/525/447
f 459/540/459 474/4/474 82/548/82
f 308/549/308 482/9/482 473/543/473
f 5/11/5 466/550/466 467/544/467
f 475/12/475 459/540/459 460/545/460
f 478/14/478 467/544/467 468/546/468
f 461/551/461 475/12/475 460/545/460
f 6/18/6 468/546/468 469/552/469
f 462/534/462 1/15/1 461/551/461
f 479/22/479 469/552/469 470/531/470
f 463/553/463 476/19/476 462/534/462
f 471/554/471 479/22/479 470/531/470
f 464/536/464 2/24/2 463/553/463
f 481/29/481 471/554/471 472/537/472
f 465/539/465 477/27/477 464/536/464
f 473/543/473 481/29/481 472/537/472
f 466/550/466 3/2/3 465/539/465
f 14/1/14 13/32/13 3/2/3
f 15/10/15 14/1/14 4/3/4
f 475/12/475 8/16/8 7/5/7
f 16/13/16 15/10/15 5/11/5
f 1/15/1 9/20/9 8/16/8
f 17/17/17 16/13/16 478/14/478
f 476/19/476 10/44/10 9/20/9
f 18/21/18 17/17/17 6/18/6
f 11/23/11 10/44/10 476/19/476
f 19/25/19 18/21/18 479/22/479
f 477/27/477 12/30/12 11/23/11
f 20/28/20 19/25/19 480/26/480
f 3/2/3 13/32/13 12/30/12
f 21/8/21 20/28/20 481/29/481
f 20/28/20 35/54/35 34/31/34
f 13/32/13 28/35/28 27/33/27
f 36/34/36 35/54/35 20/28/20
f 14/1/14 29/56/29 28/35/28
f 30/39/30 29/56/29 14/1/14
f 23/40/23 22/36/22 7/5/7
f 31/41/31 30/39/30 15/10/15
f 24/42/24 23/40/23 8/16/8
f 17/17/17 32/45/32 31/41/31
f 25/43/25 24/42/24 9/20/9
f 18/21/18 33/47/33 32/45/32
f 26/46/26 25/43/25 10/44/10
f 19/25/19 34/31/34 33/47/33
f 27/33/27 26/46/26 11/23/11
f 32/45/32 47/74/47 46/48/46
f 40/49/40 39/63/39 24/42/24
f 48/50/48 47/74/47 32/45/32
f 26/46/26 41/77/41 40/49/40
f 49/51/49 48/50/48 33/47/33
f 42/52/42 41/77/41 26/46/26
f 50/53/50 49/51/49 34/31/34
f 28/35/28 43/57/43 42/52/42
f 51/55/51 50/53/50 35/54/35
f 29/56/29 44/65/44 43/57/43
f 45/61/45 44/65/44 29/56/29
f 38/62/38 37/58/37 22/36/22
f 46/48/46 45/61/45 30/39/30
f 39/63/39 38/62/38 23/40/23
f 51/55/51 66/70/66 65/64/65
f 44/65/44 59/88/59 58/66/58
f 60/71/60 59/88/59 44/65/44
f 53/72/53 52/67/52 37/58/37
f 61/73/61 60/71/60 45/61/45
f 39/63/39 54/75/54 53/72/53
f 47/74/47 62/83/62 61/73/61
f 40/49/40 55/78/55 54/75/54
f 63/76/63 62/83/62 47/74/47
f 41/77/41 56/84/56 55/78/55
f 64/79/64 63/76/63 48/50/48
f 57/80/57 56/84/56 41/77/41
f 65/64/65 64/79/64 49/51/49
f 43/57/43 58/66/58 57/80/57
f 70/81/70 69/106/69 54/75/54
f 78/82/78 77/107/77 62/83/62
f 56/84/56 71/110/71 70/81/70
f 64/79/64 79/111/79 78/82/78
f 72/85/72 71/110/71 56/84/56
f 80/86/80 79/111/79 64/79/64
f 58/66/58 73/89/73 72/85/72
f 81/87/81 80/86/80 65/64/65
f 59/88/59 74/96/74 73/89/73
f 75/93/75 74/96/74 59/88/59
f 53/72/53 68/95/68 67/90/67
f 76/94/76 75/93/75 60/71/60
f 54/75/54 69/106/69 68/95/68
f 62/83/62 77/107/77 76/94/76
f 74/96/74 90/122/90 89/97/89
f 91/102/91 90/122/90 74/96/74
f 84/103/84 83/98/83 67/90/67
f 92/104/92 91/102/91 75/93/75
f 85/105/85 84/103/84 68/95/68
f 77/107/77 93/115/93 92/104/92
f 86/108/86 85/105/85 69/106/69
f 94/109/94 93/115/93 77/107/77
f 71/110/71 87/116/87 86/108/86
f 79/111/79 95/118/95 94/109/94
f 88/112/88 87/116/87 71/110/71
f 96/113/96 95/118/95 79/111/79
f 73/89/73 89/97/89 88/112/88
f 81/87/81 97/101/97 96/113/96
f 109/114/109 108/140/108 93/115/93
f 87/116/87 102/143/102 101/117/101
f 95/118/95 110/144/110 109/114/109
f 103/119/103 102/143/102 87/116/87
f 111/120/111 110/144/110 95/118/95
f 89/97/89 104/123/104 103/119/103
f 112/121/112 111/120/111 96/113/96
f 90/122/90 105/135/105 104/123/104
f 106/127/106 105/135/105 90/122/90
f 84/103/84 99/129/99 98/124/98
f 107/128/107 106/127/106 91/102/91
f 85/105/85 100/139/100 99/129/99
f 93/115/93 108/140/108 107/128/107
f 101/117/101 100/139/100 85/105/85
f 121/134/121 120/155/120 105/135/105
f 114/136/114 113/130/113 98/124/98
f 122/137/122 121/134/121 106/127/106
f 115/138/115 114/136/114 99/129/99
f 108/140/108 123/163/123 122/137/122
f 116/141/116 115/138/115 100/139/100
f 124/142/124 123/163/123 108/140/108
f 102/143/102 117/149/117 116/141/116
f 110/144/110 125/146/125 124/142/124
f 118/145/118 117/149/117 102/143/102
f 111/120/111 126/147/126 125/146/125
f 104/123/104 119/148/119 118/145/118
f 112/121/112 127/133/127 126/147/126
f 105/135/105 120/155/120 119/148/119
f 117/149/117 132/173/132 131/150/131
f 125/146/125 140/174/140 139/151/139
f 133/152/133 132/173/132 117/149/117
f 141/153/141 140/174/140 125/146/125
f 119/148/119 134/156/134 133/152/133
f 142/154/142 141/153/141 126/147/126
f 120/155/120 135/165/135 134/156/134
f 136/160/136 135/165/135 120/155/120
f 129/161/129 128/157/128 113/130/113
f 137/162/137 136/160/136 121/134/121
f 115/138/115 130/169/130 129/161/129
f 123/163/123 138/170/138 137/162/137
f 131/150/131 130/169/130 115/138/115
f 139/151/139 138/170/138 123/163/123
f 151/164/151 150/188/150 135/165/135
f 144/166/144 143/179/143 128/157/128
f 152/167/152 151/164/151 136/160/136
f 145/168/145 144/166/144 129/161/129
f 138/170/138 153/198/153 152/167/152
f 146/171/146 145/168/145 130/169/130
f 154/172/154 153/198/153 138/170/138
f 132/173/132 147/185/147 146/171/146
f 140/174/140 155/176/155 154/172/154
f 148/175/148 147/185/147 132/173/132
f 141/153/141 156/177/156 155/176/155
f 134/156/134 149/178/149 148/175/148
f 142/154/142 157/182/157 156/177/156
f 135/165/135 150/188/150 149/178/149
f 155/176/155 170/186/170 169/183/169
f 163/184/163 162/205/162 147/185/147
f 156/177/156 171/187/171 170/186/170
f 149/178/149 164/189/164 163/184/163
f 157/182/157 172/193/172 171/187/171
f 150/188/150 165/209/165 164/189/164
f 166/194/166 165/209/165 150/188/150
f 159/195/159 158/190/158 143/179/143
f 167/196/167 166/194/166 151/164/151
f 160/197/160 159/195/159 144/166/144
f 153/198/153 168/202/168 167/196/167
f 161/199/161 160/197/160 145/168/145
f 169/183/169 168/202/168 153/198/153
f 147/185/147 162/205/162 161/199/161
f 182/200/182 181/215/181 166/194/166
f 175/201/175 174/216/174 159/195/159
f 168/202/168 183/229/183 182/200/182
f 176/203/176 175/201/175 160/197/160
f 184/204/184 183/229/183 168/202/168
f 162/205/162 177/232/177 176/203/176
f 170/186/170 185/207/185 184/204/184
f 178/206/178 177/232/177 162/205/162
f 171/187/171 186/208/186 185/207/185
f 164/189/164 179/210/179 178/206/178
f 172/193/172 187/214/187 186/208/186
f 165/209/165 180/219/180 179/210/179
f 181/215/181 180/219/180 165/209/165
f 174/216/174 173/211/173 158/190/158
f 201/217/201 200/239/200 185/207/185
f 179/210/179 194/220/194 193/218/193
f 187/214/187 202/224/202 201/217/201
f 180/219/180 195/243/195 194/220/194
f 196/225/196 195/243/195 180/219/180
f 189/226/189 188/221/188 173/211/173
f 197/227/197 196/225/196 181/215/181
f 190/228/190 189/226/189 174/216/174
f 183/229/183 198/234/198 197/227/197
f 191/230/191 190/228/190 175/201/175
f 199/231/199 198/234/198 183/229/183
f 177/232/177 192/238/192 191/230/191
f 185/207/185 200/239/200 199/231/199
f 193/218/193 192/238/192 177/232/177
f 205/233/205 204/250/204 189/226/189
f 198/234/198 213/263/213 212/235/212
f 206/236/206 205/233/205 190/228/190
f 214/237/214 213/263/213 198/234/198
f 192/238/192 207/266/207 206/236/206
f 200/239/200 215/241/215 214/237/214
f 208/240/208 207/266/207 192/238/192
f 201/217/201 216/242/216 215/241/215
f 194/220/194 209/244/209 208/240/208
f 202/224/202 217/248/217 216/242/216
f 195/243/195 210/253/210 209/244/209
f 211/249/211 210/253/210 195/243/195
f 204/250/204 203/245/203 188/221/188
f 212/235/212 211/249/211 196/225/196
f 209/244/209 224/254/224 223/251/223
f 217/248/217 232/258/232 231/252/231
f 210/253/210 225/276/225 224/254/224
f 226/259/226 225/276/225 210/253/210
f 219/260/219 218/255/218 203/245/203
f 227/261/227 226/259/226 211/249/211
f 220/262/220 219/260/219 204/250/204
f 213/263/213 228/268/228 227/261/227
f 221/264/221 220/262/220 205/233/205
f 229/265/229 228/268/228 213/263/213
f 207/266/207 222/272/222 221/264/221
f 215/241/215 230/267/230 229/265/229
f 223/251/223 222/272/222 207/266/207
f 216/242/216 231/252/231 230/267/230
f 228/268/228 243/294/243 242/269/242
f 236/270/236 235/283/235 220/262/220
f 244/271/244 243/294/243 228/268/228
f 222/272/222 237/297/237 236/270/236
f 230/267/230 245/274/245 244/271/244
f 238/273/238 237/297/237 222/272/222
f 231/252/231 246/285/246 245/274/245
f 224/254/224 239/277/239 238/273/238
f 247/275/247 246/285/246 231/252/231
f 225/276/225 240/286/240 239/277/239
f 241/281/241 240/286/240 225/276/225
f 234/282/234 233/278/233 218/255/218
f 242/269/242 241/281/241 226/259/226
f 235/283/235 234/282/234 219/260/219
f 262/284/262 261/299/261 246/285/246
f 240/286/240 255/309/255 254/287/254
f 256/291/256 255/309/255 240/286/240
f 234/282/234 249/293/249 248/288/248
f 257/292/257 256/291/256 241/281/241
f 235/283/235 250/301/250 249/293/249
f 243/294/243 258/303/258 257/292/257
f 251/295/251 250/301/250 235/283/235
f 259/296/259 258/303/258 243/294/243
f 237/297/237 252/304/252 251/295/251
f 245/274/245 260/305/260 259/296/259
f 253/298/253 252/304/252 237/297/237
f 261/299/261 260/305/260 245/274/245
f 239/277/239 254/287/254 253/298/253
f 266/300/266 265/316/265 250/301/250
f 274/302/274 273/327/273 258/303/258
f 252/304/252 267/330/267 266/300/266
f 260/305/260 275/331/275 274/302/274
f 268/306/268 267/330/267 252/304/252
f 276/307/276 275/331/275 260/305/260
f 254/287/254 269/310/269 268/306/268
f 277/308/277 276/307/276 261/299/261
f 255/309/255 270/317/270 269/310/269
f 271/314/271 270/317/270 255/309/255
f 249/293/249 264/325/264 263/311/263
f 272/315/272 271/314/271 256/291/256
f 265/316/265 264/325/264 249/293/249
f 258/303/258 273/327/273 272/315/272
f 270/317/270 285/341/285 284/318/284
f 286/323/286 285/341/285 270/317/270
f 279/324/279 278/319/278 263/311/263
f 287/326/287 286/323/286 271/314/271
f 265/316/265 280/350/280 279/324/279
f 273/327/273 288/335/288 287/326/287
f 281/328/281 280/350/280 265/316/265
f 289/329/289 288/335/288 273/327/273
f 267/330/267 282/336/282 281/328/281
f 275/331/275 290/338/290 289/329/289
f 283/332/283 282/336/282 267/330/267
f 291/333/291 290/338/290 275/331/275
f 269/310/269 284/318/284 283/332/283
f 277/308/277 292/322/292 291/333/291
f 304/334/304 303/359/303 288/335/288
f 282/336/282 297/362/297 296/337/296
f 290/338/290 305/363/305 304/334/304
f 298/339/298 297/362/297 282/336/282
f 306/340/306 305/363/305 290/338/290
f 284/318/284 299/342/299 298/339/298
f 292/322/292 307/346/307 306/340/306
f 285/341/285 300/354/300 299/342/299
f 301/347/301 300/354/300 285/341/285
f 294/348/294 293/343/293 278/319/278
f 302/349/302 301/347/301 286/323/286
f 280/350/280 295/357/295 294/348/294
f 288/335/288 303/359/303 302/349/302
f 296/337/296 295/357/295 280/350/280
f 317/353/317 316/373/316 300/354/300
f 294/348/294 310/358/310 309/355/309
f 318/356/318 317/353/317 301/347/301
f 295/357/295 311/382/311 310/358/310
f 303/359/303 319/383/319 318/356/318
f 312/360/312 311/382/311 295/357/295
f 320/361/320 319/383/319 303/359/303
f 297/362/297 313/371/313 312/360/312
f 305/363/305 321/368/321 320/361/320
f 314/364/314 313/371/313 297/362/297
f 322/365/322 321/368/321 305/363/305
f 299/342/299 315/366/315 314/364/314
f 323/352/323 322/365/322 306/340/306
f 300/354/300 316/373/316 315/366/315
f 321/368/321 336/393/336 335/369/335
f 329/370/329 328/392/328 313/371/313
f 337/372/337 336/393/336 321/368/321
f 315/366/315 330/374/330 329/370/329
f 323/352/323 338/378/338 337/372/337
f 316/373/316 331/397/331 330/374/330
f 332/379/332 331/397/331 316/373/316
f 325/380/325 324/375/324 309/355/309
f 333/381/333 332/379/332 317/353/317
f 311/382/311 326/387/326 325/380/325
f 319/383/319 334/389/334 333/381/333
f 327/384/327 326/387/326 311/382/311
f 335/369/335 334/389/334 319/383/319
f 313/371/313 328/392/328 327/384/327
f 325/380/325 340/388/340 339/385/339
f 348/386/348 347/401/347 332/379/332
f 326/387/326 341/415/341 340/388/340
f 334/389/334 349/416/349 348/386/348
f 342/390/342 341/415/341 326/387/326
f 350/391/350 349/416/349 334/389/334
f 328/392/328 343/403/343 342/390/342
f 336/393/336 351/405/351 350/391/350
f 344/394/344 343/403/343 328/392/328
f 352/395/352 351/405/351 336/393/336
f 330/374/330 345/398/345 344/394/344
f 353/396/353 352/395/352 337/372/337
f 331/397/331 346/406/346 345/398/345
f 347/401/347 346/406/346 331/397/331
f 359/402/359 358/555/358 343/403/343
f 367/404/367 366/556/366 351/405/351
f 345/398/345 360/407/360 359/402/359
f 353/396/353 368/411/368 367/404/367
f 346/406/346 361/557/361 360/407/360
f 362/412/362 361/557/361 346/406/346
f 355/413/355 354/408/354 339/385/339
f 363/414/363 362/412/362 347/401/347
f 341/415/341 356/558/356 355/413/355
f 349/416/349 364/559/364 363/414/363
f 357/417/357 356/558/356 341/415/341
f 365/418/365 364/559/364 349/416/349
f 343/403/343 358/555/358 357/417/357
f 351/405/351 366/556/366 365/418/365
f 378/419/378 377/445/377 362/420/362
f 356/422/356 371/458/371 370/423/370
f 364/425/364 379/459/379 378/419/378
f 372/426/372 371/458/371 356/422/356
f 380/428/380 379/459/379 364/425/364
f 358/430/358 373/462/373 372/426/372
f 366/431/366 381/447/381 380/428/380
f 374/432/374 373/462/373 358/430/358
f 382/434/382 381/447/381 366/431/366
f 360/436/360 375/440/375 374/432/374
f 383/437/383 382/434/382 367/435/367
f 361/439/361 376/450/376 375/440/375
f 377/445/377 376/450/376 361/439/361
f 370/423/370 369/442/369 354/441/354
f 382/434/382 397/472/397 396/446/396
f 375/440/375 390/451/390 389/448/389
f 398/449/398 397/472/397 382/434/382
f 376/450/376 391/473/391 390/451/390
f 392/455/392 391/473/391 376/450/376
f 370/423/370 385/464/385 384/452/384
f 393/456/393 392/455/392 377/445/377
f 386/457/386 385/464/385 370/423/370
f 379/459/379 394/465/394 393/456/393
f 387/460/387 386/457/386 371/458/371
f 395/461/395 394/465/394 379/459/379
f 373/462/373 388/469/388 387/460/387
f 381/447/381 396/446/396 395/461/395
f 389/448/389 388/469/388 373/462/373
f 386/457/386 401/491/401 400/463/400
f 394/465/394 409/492/409 408/466/408
f 402/467/402 401/491/401 386/457/386
f 410/468/410 409/492/409 394/465/394
f 388/469/388 403/495/403 402/467/402
f 396/446/396 411/496/411 410/468/410
f 404/470/404 403/495/403 388/469/388
f 412/471/412 411/496/411 396/446/396
f 390/451/390 405/474/405 404/470/404
f 398/449/398 413/478/413 412/471/412
f 391/473/391 406/482/406 405/474/405
f 407/479/407 406/482/406 391/473/391
f 400/463/400 399/475/399 384/452/384
f 408/466/408 407/479/407 392/455/392
f 405/474/405 420/483/420 419/480/419
f 413/478/413 428/487/428 427/481/427
f 406/482/406 421/506/421 420/483/420
f 422/488/422 421/506/421 406/482/406
f 415/489/415 414/484/414 399/475/399
f 423/490/423 422/488/422 407/479/407
f 401/491/401 416/500/416 415/489/415
f 409/492/409 424/497/424 423/490/423
f 417/493/417 416/500/416 401/491/401
f 425/494/425 424/497/424 409/492/409
f 403/495/403 418/502/418 417/493/417
f 411/496/411 426/503/426 425/494/425
f 419/480/419 418/502/418 403/495/403
f 427/481/427 426/503/426 411/496/411
f 424/497/424 439/524/439 438/498/438
f 432/499/432 431/522/431 416/500/416
f 440/501/440 439/524/439 424/497/424
f 418/502/418 433/527/433 432/499/432
f 426/503/426 441/528/441 440/501/440
f 434/504/434 433/527/433 418/502/418
f 442/505/442 441/528/441 426/503/426
f 420/483/420 435/507/435 434/504/434
f 428/487/428 443/511/443 442/505/442
f 421/506/421 436/515/436 435/507/435
f 437/512/437 436/515/436 421/506/421
f 430/513/430 429/508/429 414/484/414
f 438/498/438 437/512/437 422/488/422
f 416/500/416 431/522/431 430/513/430
f 458/514/458 457/530/457 442/505/442
f 436/515/436 451/538/451 450/516/450
f 452/520/452 451/538/451 436/515/436
f 430/513/430 445/523/445 444/517/444
f 453/521/453 452/520/452 437/512/437
f 431/522/431 446/547/446 445/523/445
f 439/524/439 454/532/454 453/521/453
f 447/525/447 446/547/446 431/522/431
f 455/526/455 454/532/454 439/524/439
f 433/527/433 448/533/448 447/525/447
f 441/528/441 456/535/456 455/526/455
f 449/529/449 448/533/448 433/527/433
f 457/530/457 456/535/456 441/528/441
f 435/507/435 450/516/450 449/529/449
f 470/531/470 469/552/469 454/532/454
f 448/533/448 463/553/463 462/534/462
f 456/535/456 471/554/471 470/531/470
f 464/536/464 463/553/463 448/533/448
f 472/537/472 471/554/471 456/535/456
f 450/516/450 465/539/465 464/536/464
f 458/514/458 473/543/473 472/537/472
f 451/538/451 466/550/466 465/539/465
f 467/544/467 466/550/466 451/538/451
f 460/545/460 459/540/459 444/517/444
f 468/546/468 467/544/467 452/520/452
f 446/547/446 461/551/461 460/545/460
f 454/532/454 469/552/469 468/546/468
f 462/534/462 461/551/461 446/547/446
f 5/11/5 4/3/4 466/550/466
f 475/12/475 474/4/474 459/540/459
f 478/14/478 5/11/5 467/544/467
f 461/551/461 1/15/1 475/12/475
f 6/18/6 478/14/478 468/546/468
f 462/534/462 476/19/476 1/15/1
f 479/22/479 6/18/6 469/552/469
f 463/553/463 2/24/2 476/19/476
f 471/554/471 480/26/480 479/22/479
f 464/536/464 477/27/477 2/24/2
f 481/29/481 480/26/480 471/554/471
f 465/539/465 3/2/3 477/27/477
f 473/543/473 482/9/482 481/29/481
f 466/550/466 4/3/4 3/2/3
